<?xml version="1.0" standalone="no"?>
<!DOCTYPE svg PUBLIC "-//W3C//DTD SVG 1.1//EN" "http://www.w3.org/Graphics/SVG/1.1/DTD/svg11.dtd" >
<svg xmlns="http://www.w3.org/2000/svg">
<metadata></metadata>
<defs>
<font id="adistillers_fontedgy" horiz-adv-x="968" >
<font-face units-per-em="2048" ascent="1638" descent="-410" />
<missing-glyph horiz-adv-x="914" />
<glyph horiz-adv-x="0" />
<glyph unicode="&#xd;" horiz-adv-x="416" />
<glyph unicode=" "  horiz-adv-x="914" />
<glyph unicode="&#x09;" horiz-adv-x="914" />
<glyph unicode="&#xa0;" horiz-adv-x="914" />
<glyph unicode="!" horiz-adv-x="592" d="M146 746v22q0 60 13 143t26 127t32 189t34 291t34 209t22 247t21 291t3 167t-3 139t108 97q58 -14 82 -60t32 -153t8 -253q0 -148 -29 -299t-61 -332t-64 -346t-60 -267t-55 -139t-19 -93t-10 -82q-16 -20 -38 -20h-8q-50 4 -62 44q-6 32 -6 78zM172 310q60 66 102 100 q24 20 52 20q16 0 36 -6q48 -22 83 -68t39 -78v-8q0 -28 -26 -44q-32 -16 -45 -60t-31 -44q-6 -4 -8 -4q-20 0 -52 8q-40 8 -82 59t-68 125z" />
<glyph unicode="&#x22;" horiz-adv-x="706" d="M108 2588l12 154l98 62l78 -90l2 -134l-10 -142l-30 -184l16 -204l-96 -152l-14 132l-40 308zM400 2594l44 164l108 -28l36 -144l-8 -142l-30 -184l-4 -150l-8 -178l-84 104l-38 308z" />
<glyph unicode="#" horiz-adv-x="13030" d="M576 -900v3860h12240v-3860h-12240zM776 -108v-44l948 4l10 146l-94 26l-90 68l-28 100q-16 964 28 986v90h-134l-104 -38l-140 -40l-268 6l-34 -78l40 -96l34 -28l10 -970q-44 -54 -50 -68t-128 -64zM938 1652q22 -94 86 -141t186 -65q62 0 107 11t123 20t83 31t-28 42 t-28 47t36 55t-2 70t-125 73t-204 31q-150 -12 -181 -42t-53 -132zM1802 2216h200q90 -90 129 -282t11 -320l16 -424l12 -774l-18 -286v-194q-56 -94 -109 -150t-97 -81t-44 -87l88 -32l898 -6l6 72q-94 6 -133 20t-73 136l-40 690q56 68 45 82t-27 70l-12 1416 q-28 118 -53 267t-3 323l-50 6q-72 -56 -108 -109t-131 -109t-187 -86t-320 -76v-66zM2972 2088l10 -68l62 -16q312 0 334 -36t36 -265t-40 -279l-6 -134q0 -1404 -67 -1423t-189 -93l16 -66h686l284 34l6 78l-46 28q-150 38 -169 113t-19 515t-12 761t5 577t61 346l-28 206 l-72 -10q-128 -96 -228 -138t-178 -72t-190 -36t-256 -22zM4604 1436q18 -46 46 -54t78 -27t142 -67t147 -81t103 -70t64 -137l18 -864q-18 -112 -51 -145t-105 -87l4 -46l942 4l46 28l4 172q-88 28 -133 60t-79 136q28 530 106 620t176 179t187 131t173 36t125 -39t61 -84 t8 -87t-24 -62t-8 -58t18 -38t6 -45t14 -67v-66q0 -236 -19 -255t13 -47q14 -176 -52 -254q-14 -168 -58 -270l10 -32l592 6l44 26l112 12l-28 84q-118 34 -148 61t-36 177v664q-22 240 -112 315t-195 120t-164 61t-209 22q-146 -10 -240 -58t-218 -158q-100 -84 -117 -59 t-11 225h-56q-38 -22 -148 -34q-264 -12 -410 21t-256 65t-180 49t-182 17zM7274 1524q106 -72 156 -156t56 -480l6 -94l38 -28q28 -434 25 -576t-13 -360q-90 -78 -178 -122l-12 -72l792 6v44q-122 60 -182 220l34 446q-42 370 -48 1034l-16 134l16 418h-66 q-50 -118 -89 -185t-92 -98t-134 -53t-187 -33t-106 -45zM7475 2451q-11 -39 21 -53t36 -51t29 -84t81 -41q112 10 168 16t89 56t5 120t-81 100t-78 17t-56 -11t-97 36q-106 -66 -117 -105zM8116 1424l44 -34l212 -4q150 -156 150 -290q-60 -62 -46 -87t60 -109l-10 -206 l-4 -390q-60 -202 -130 -243t-154 -91q56 0 151 6t151 -46h84l88 28q84 40 340 28l290 -4l12 54l-84 12q-90 38 -115 85t-69 117t-126 188q14 156 -8 390l38 22l-16 56l-6 72q46 134 124 198t192 86t209 25t200 -8t161 -84t78 -713q-22 -584 -38 -612t-106 -118l10 -50 q314 12 344 -5t64 -117l44 -18q84 62 176 76t292 14v72q-78 12 -117 51t-89 61l-88 150l-34 240q22 100 56 200q0 278 -34 368v240q-50 206 -111 267t-148 103t-201 76t-370 56q-202 -22 -305 -64t-263 -120l10 72l-38 140l-46 -22l-78 -12l-66 68l-184 60l-100 -10 l-66 -144l-180 -12l-128 -12zM8618 2048l32 -22l56 -16q46 56 90 61t136 -23t201 -72t190 -78t161 -50t236 -34q102 22 143 61t53 101q-16 62 -41 76t-42 19t-31 -14t-22 -55t-47 -53t-120 2t-201 58t-248 98t-215 84t-165 37q-78 -34 -114 -84t-52 -96zM10818 810 q24 -216 40 -361t66 -260t140 -217t440 -152q324 22 463 30t281 80t212 164t89 240t31 494q-94 222 -200 331t-215 162t-377 97q-172 -16 -295 -49t-248 -103t-217 -132t-139 -134t-71 -190zM11254 563q0 165 19 234t97 153t145 131t181 28t215 -55t156 -67t106 -112 t48 -198t-28 -231t-50 -190t-98 -131t-170 -72t-212 -20t-209 33t-125 106t-53 148t-22 243zM11510 600q22 -62 57 -105t67 -50t49 -5t28 39t36 51t22 42t-32 66t-70 55t-74 -11t-83 -82z" />
<glyph unicode="$" horiz-adv-x="9774" d="M544 278q8 54 33 95t119 99t236 93t522 21q66 6 111 45t89 167v426q-76 4 -190 36q-72 10 -152 58q-58 32 -108 106l-22 48q2 54 22 130q42 58 103 106t134 84t165 70l36 12v154q-148 -38 -278 -44t-196 27t-106 123v94q44 84 91 116t163 42q106 -36 140 -108l210 80 q148 162 177 237t59 177l24 190l40 -4l-16 -150q-16 -86 -53 -196t-126 -202t-166 -123t-197 -59q-24 80 -80 99t-152 -15l-66 -78q12 -122 53 -159t191 -55q166 28 288 54l48 12v-248q-44 -6 -117 -30t-139 -63t-123 -92t-83 -145q10 -80 84 -130q54 -48 142 -72 q52 -18 142 -24h106v-496q-68 -158 -117 -198t-155 -50l-322 12q-178 -28 -262 -58t-152 -74t-102 -128q30 -66 93 -99t293 -55q168 22 298 48l154 58q54 28 128 40l54 -16l42 -58v-78l-34 -40l-48 10l-60 60q-14 36 0 94l-48 -58v-120l24 -70q46 -62 96 -80t116 -20t120 18 t124 80q32 74 42 168q-14 70 -60 154q-42 52 -94 94l34 12l12 58l-22 60l36 20l34 4l70 -60l36 12l142 82l118 96l12 22q-102 42 -139 67t-79 75l-6 84l-12 342l-4 80q146 104 240 158q20 -36 48 -96q34 -96 62 -304q-34 -140 -86 -180q-70 -48 -84 -92l14 -38 q36 -54 96 -106q86 -36 186 -36l96 24q58 -108 133 -184t233 -206l184 -122l-114 -232l-58 -154q-32 -92 -72 -236l-38 6l16 64l46 166l130 306l24 66q-122 88 -290 214q-136 134 -214 262q-126 -22 -172 -16t-116 48q-106 -88 -173 -131t-167 -93l-70 64l-10 -108 q58 -82 100 -152l24 -106l-12 -72q-18 -68 -72 -144q-74 -56 -127 -71t-189 -9q-106 32 -174 94q-38 86 -40 178v48l-130 -36q-112 -30 -308 -54q-166 8 -248 31t-166 93zM632 288q16 56 79 104t209 86t307 38t221 -7t126 28t106 113t56 282l-20 374q-126 -6 -205 9t-142 53 t-85 73t-22 76t56 101t135 108t263 98l2 314q-66 -30 -208 -56t-222 -15t-108 48t-30 78t24 66t68 38t86 -13t46 -100q182 34 253 65t162 126t126 202t61 201l50 -948q50 -6 222 -62q70 68 82 160t12 177t-114 149q6 32 76 73t172 85q38 -64 63 -75t64 10t50 49t-11 44 t-19 35t63 48t171 60t234 41t403 10l82 -20q-172 -12 -267 -34t-193 -66t-183 -123t-215 -250t-280 -367q0 -82 75 -136t173 -108t250 -66q-94 -82 -94 -243t47 -326t149 -298t290 -297q72 52 108 126l-6 558q-76 -14 -123 -14t-107 26t-115 70t-80 96t0 91t83 55t127 1 t63 -39q-56 -46 -42 -87t69 -57t74 -7t31 73t0 139t-38 101t-126 58q234 88 291 138t123 110t146 78l102 -28q-108 -70 -137 -116t-33 -130t8 -366t25 -424t83 -211t164 -145q-166 -16 -279 -46t-245 -120q44 -50 179 -89t247 -52t344 -17q-224 -46 -348 -37t-242 36 t-288 77q-58 -50 -137 -144t-253 -348l6 48q112 282 224 502q-148 96 -297 220t-271 316q-94 -30 -170 -27t-115 26t-87 141q114 70 142 158t0 234t-63 218t-67 63t-100 -51t-110 -70t-56 -84q26 -500 76 -550t158 -88q-138 -90 -266 -158q-82 62 -126 46t-44 -44t10 -63 t-48 -85q70 -50 111 -110t47 -124t-13 -111t-87 -88t-136 -38t-117 19t-69 63t-20 97q60 -62 100 -57t65 39t22 80t-37 87t-86 44t-118 -25t-158 -56t-208 -48t-196 -10t-140 29t-120 89zM824 302q24 -30 107 -31t138 6t166 39t203 74q-158 20 -256 16t-205 -32t-153 -72z M888 306l74 36l88 24l98 18h100l112 -2l-64 -26l-110 -34l-104 -18l-134 -6zM1540 1552q82 -44 164 -38l-6 120q-102 -12 -158 -82zM1548 194l36 -58h22l-10 82l-48 20v-44zM1592 1566q48 22 80 36l4 -58q-54 4 -84 22zM1996 2962h48l12 -190v-248l12 -308q56 44 94 89 t150 112t153 69t65 -32l10 46q54 58 228 124t376 90h154l236 -12l226 -40l46 -20l-12 -36l-94 24q-56 10 -173 21t-240 13t-232 -8t-206 -37t-189 -83l-72 -48q4 -42 36 -70q-34 -44 -84 -60l-34 60l-36 24q-54 -18 -117 -51t-155 -103l-30 -48l40 -6l60 -30q54 -80 54 -188 l-16 -118l-26 -72q-16 -14 -46 -22q-52 18 -186 50l-16 174v142l-12 24l-12 294v248l-4 106zM2038 1662l12 -110q90 54 82 73t-94 37zM2060 1636l2 -58l44 26l2 18zM2074 2162l6 -252l24 -36q134 -24 164 24q12 54 12 124t-13 106t-62 58t-101 8zM2104 1294l12 -160 q10 -262 136 -360l-40 72q-2 40 10 94q122 74 146 156l2 98l-18 112l-68 166q-76 -48 -168 -118zM2470 1744q94 130 173 243t185 239t179 178t151 87t191 61t289 36l132 -4l24 -12l-12 -36q-94 12 -201 6t-213 -27t-280 -99q-172 -138 -211 -186t-114 -149t-146 -206 t-99 -147l44 -46q120 -78 196 -110t172 -30l36 12l24 -34l-86 -22l-92 4l-46 20q-130 66 -206 116t-90 106zM2873 1254q1 82 53 160l80 72l20 -38l-60 -58q-38 -50 -58 -130l58 70q72 40 154 54l72 -6l58 -12l54 -16l38 -18q-44 70 -88 79t-108 11l-2 34q64 6 154 -20 q58 -36 82 -106l12 -90l-32 -100q-78 24 -110 76q62 30 76 78q-34 26 -114 50l-92 4l-88 -20q-58 -54 -84 -132q30 -74 78 -123t109 -80t173 -53l72 12h24v-236l6 -108l-4 -174l-30 -56l-54 -40l-48 46q-120 124 -278 342q-60 144 -114 336q-10 110 -9 192zM2920 1118 l38 -182l68 -174q84 -148 204 -284l98 -92q38 38 40 140l-12 378h-70q-104 18 -228 90zM2966 -454q20 48 60 106q40 66 94 154q62 84 140 178l126 138q186 -54 418 -104q200 -18 278 -7t220 43l118 34v-46q-122 -32 -247 -54t-240 -14t-240 29t-297 69l-146 -160 q-118 -154 -224 -330l-22 -46zM3062 2156q2 74 18 103t76 65q66 22 150 28q78 -14 158 -52q44 -58 74 -84q94 6 169 26t142 46t261 106t339 121t289 69t364 46q158 -16 241 -33t150 -43t133 -78q44 -54 48 -140q-20 -56 -82 -108l-36 -12q36 -22 119 -32t245 -42 q114 -24 180 -56q66 -12 142 -58q52 -20 118 -60q52 -18 130 -58q42 -20 106 -36l24 -12q64 -22 166 -24q62 8 84 92q88 52 137 63t133 11q82 -28 142 -82q14 -40 12 -98q-34 -88 -91 -131t-171 -85l-116 -18q-252 2 -356 21t-310 49q-78 -32 -114 -94v-378l10 -426l12 -272 q30 -88 88 -111t162 -29l60 16l10 -40l-60 -12h-82l-94 12q-82 36 -104 93t-26 143l-12 178q-10 414 -12 472l14 378q60 92 116 104t148 -4t180 -33t264 -31q174 16 249 37t124 61t75 126q-24 62 -59 84t-79 31t-101 -9t-96 -47t-37 -105l-88 -12q-60 2 -142 12l-24 10 l-142 48l-130 60q-48 28 -118 58q-50 28 -130 60q-54 26 -118 48v-36l-24 -72l-60 -12q-58 28 -70 66l24 40l42 40q-82 4 -148 17t-226 33l-184 6l-130 -2q-160 -22 -249 -40t-143 -58t-86 -102v-70l48 -60q88 -42 214 -34q154 66 210 118l36 46l-82 -12l-36 -22 q-48 0 -106 22q56 36 142 48q66 -2 166 -24l140 -46q48 -28 103 -70t92 -95t77 -119v-1302q-2 -66 -27 -137t-57 -126t-78 -106t-103 -94t-191 -103q-132 -42 -218 -62l-66 -18l-4 44l48 12q66 16 118 23t121 36t128 73t110 100t82 112t91 188v1360q-44 72 -92 126t-104 88 t-136 64l-70 16l-36 -46q-42 -32 -100 -64t-148 -66l-134 -16q-110 32 -162 98l-12 -106v-212l12 -356l12 -366l14 -148q60 -136 135 -208t241 -176l130 -60q54 -16 154 -42l88 -4l6 -48q-90 6 -169 25t-141 46t-153 83t-177 132t-124 147t-52 277v330l-14 366l-14 276 l-6 68l8 184q26 86 65 139t95 95t121 65t159 37q34 -52 72 -85t142 -69q56 -8 142 -12q86 20 146 46l30 50v82q-58 66 -122 95t-138 47t-256 38q-184 -16 -418 -62l-154 -36h-46q8 -24 36 -34l-12 -48l-22 -36l-60 -20l-48 32q-24 26 -24 72l-68 -32q-168 -72 -233 -101 t-135 -55t-262 -80l-142 -16l-32 -6l-4 30q-26 52 -90 96q-70 14 -148 20q-82 -22 -134 -76l-6 -76q64 -78 127 -110t138 -49t162 -14t185 23t164 37t184 37l128 -18l52 -36q28 -56 42 -284v-296l12 -284q12 -248 -1 -311t-81 -137q-56 -12 -118 -10l-48 10l-54 16l66 -88 l88 -94q108 -106 208 -166q16 58 37 88t47 26t70 -30l-12 -60q-74 -36 -83 -51t47 -49q182 -96 331 -141t248 -62t285 -25l164 8v-46h-306q-244 40 -383 80t-259 96t-217 124t-202 169t-152 165t-89 122l48 12l48 -24q116 -40 167 -37t81 41t34 174v106l-22 366v260 q-12 256 -60 320q-142 18 -268 -8t-228 -52q-240 -18 -333 3t-165 62t-128 135zM3144 1508q18 36 118 58q172 82 250 148t131 109t125 67q76 -4 128 -20t122 -44v-34q-52 12 -117 33t-143 27q-68 -40 -173 -133t-153 -120t-127 -57t-137 -46zM3155 2207q9 35 55 52t104 9 t96 -38t8 -46t-11 -33t158 -2t264 54t233 89t266 114q36 -52 68 -70t80 -3t64 38t16 51t110 57t210 49t212 22t213 -20t183 -56t102 -73t5 -71t-63 -53t-124 -15t-144 31t-110 81q94 -38 147 -33t75 59q-90 38 -171 38t-177 -21t-178 -60t-150 -132t-79 -206t21 -689 l12 -588q6 -132 48 -208t154 -170t230 -152t260 -96q-110 -12 -211 4t-256 57t-240 79t-169 96q76 46 80 98t-45 79t-92 4t-69 -99q-82 50 -264 244q112 -24 168 19t79 136t17 330t-24 787q-26 90 -67 118t-114 38t-218 -19t-253 -51t-184 -19t-171 35t-129 76t-25 79z M3552 228q66 50 131 74t138 40t197 32l72 10q-22 -44 -146 -54q-136 -28 -258 -66l-56 -30l72 -30q128 -28 234 -44l188 -16l190 4h84l10 -36h-46l-206 -6l-126 6l-158 14q-122 20 -194 42t-126 60zM3770 1520q18 118 50 158t77 63t121 27v-48h-82q-84 -44 -118 -130v-402 l12 -296l12 -130l10 -86q18 -64 88 -131t146 -103l4 -34q-50 12 -122 64l-110 106l-48 82l-28 540zM4392 370q80 82 63 88t-63 -88zM4420 2484q-12 -66 7 -75t36 5t-43 70zM4692 2052l6 -68q46 88 122 130t216 76l154 14l74 6q-64 26 -122 66l-60 60h-94q-70 -26 -154 -84 q-48 -46 -106 -118zM4778 1939q2 39 33 74t84 59t205 43t259 19t208 -9t269 -39q-44 -72 -13 -109t80 -41t85 21t40 83q298 -134 437 -197t237 -74t228 5q-16 80 11 104t73 39t80 15t82 -25t42 -69t-48 -83t-105 -61t-132 -31t-193 7t-250 38t-202 28t-130 -19t-76 -107 t-2 -1038q12 -120 34 -180t85 -82t215 -22q-56 -36 -190 -134l-114 -82q-68 70 -103 73t-70 -25t-22 -78t69 -82q-94 -64 -183 -108t-212 -79t-224 -54t-211 -9q136 40 221 76t148 91t136 160t98 178t25 1395q-16 88 -86 180t-169 148t-211 79t-191 14t-109 -38t-18 -48 t76 -33l114 8q-58 -26 -99 -51t-91 -35t-101 -4t-86 38t-33 71zM5006 -330q76 2 326 18q212 36 343 81t217 92t142 107l-64 28l-36 46q12 60 70 82q60 -38 72 -94l10 -22l14 10l28 30q246 180 350 254l26 -36q-102 -64 -350 -240q-190 -172 -278 -217t-201 -84t-309 -73 l-118 -16l-154 -8h-82zM5154 2406h70l52 4l44 -16l18 -6l-22 -24l-66 -2l-60 20l-30 6zM5886 2028l36 -12l24 12l12 68l-12 12zM5974 42l94 -70l-70 118zM6288 846q48 94 75 120t115 34l104 -40l-10 -56l-14 -66l72 -10l-22 218l-84 -4q-80 26 -126 59t-86 99h60l130 24 q150 48 229 92t183 134q86 70 126 84t100 14q68 -42 88 -80t34 -82l16 114q42 186 76 252t78 127t168 203q216 162 341 216t357 144l108 34l-12 -58q-20 -44 -24 -93t25 -75t105 -46q70 4 142 36q54 54 94 130l-12 106l-48 202l28 6l44 -136q22 -136 17 -185t-42 -96 t-93 -71t-174 -26q-120 72 -124 119t6 117q-188 -62 -343 -131t-247 -134t-173 -147t-145 -187t-90 -210t-40 -283q18 -184 40 -271t60 -173l72 -130q32 -48 94 -108l46 -58h-94q-86 -12 -143 -29t-149 -83q-34 -62 -50 -148q12 -58 58 -130q38 -22 144 -62q-60 86 -66 114 t6 56t62 54t192 32l124 -6l176 -34l290 -70q222 -38 361 -15t253 74t260 175q40 92 45 155t-37 141q-78 64 -226 86q-98 -28 -127 -65t-26 -77t45 -96l66 -30q68 4 132 38q-46 -72 -102 -108t-137 -62t-153 -26t-238 28q-138 48 -200 81t-114 82t-86 105t-64 126l-12 96 q24 108 71 157t153 79h84l16 -16l-24 -82q74 -30 294 -58q228 28 307 62t153 92q52 66 56 146q-44 48 -124 92l-68 -4l-66 -32l-24 -70q10 -30 52 -44l50 10q-22 -26 -62 -44l-64 8l-94 22l-42 8l20 42l10 68l-4 48q-44 44 -114 82l-102 22l-136 2l-94 -12l-130 -46 q-48 -26 -118 -84l-70 -58q-66 -74 -96 -142l-12 58l12 48q24 88 60 154t71 114t85 102t105 93t116 65t120 32t96 -7t69 -79q-24 -58 -84 -96l-48 -12l26 72l-54 10q-52 -26 -88 -70q0 -76 34 -114q56 -14 120 -16h72q94 22 148 50t108 64t119 98t104 138t64 168t16 199 t-31 169t-128 238l24 12l82 -118l60 -120l36 -152v-154q-28 -144 -71 -234t-109 -157t-137 -115t-181 -98l24 -24q52 -34 82 -106l-10 -82v-24l66 -18q-4 90 28 125t106 53q90 -6 154 -54q50 -48 58 -130q-16 -60 -59 -109t-107 -85t-161 -58t-233 -28q-176 18 -338 56 l30 88q-98 -4 -148 -43t-82 -151q32 -154 72 -214t92 -106l166 -90q166 -48 280 -68l144 2q90 30 168 74l-88 38q-50 52 -66 128q10 64 42 103t84 58t107 17t101 -13t96 -55t78 -182l-12 -90q-54 -104 -131 -170t-271 -154q-152 -40 -294 -58q-136 12 -346 60 q-364 76 -481 81t-172 -16t-62 -56t27 -89t69 -67t135 -21l2 -36l-50 -4q-84 6 -176 40q-162 64 -248 154q-34 64 -46 136t-8 178t51 118t175 -6l-78 60q-54 42 -158 80q0 422 28 510l48 60l72 -24l46 -24l-36 82q-34 62 -69 83t-73 8t-106 -67q-152 -122 -217 -158 t-142 -64t-225 -52q72 -52 176 -72q92 0 102 -68l12 -164v-24l-26 -42q-84 4 -126 44q40 106 -18 119t-87 -2t-75 -107q-10 -84 42 -186q104 -60 162 -65t144 3l6 -238l12 -240q-156 -172 -201 -232t-78 -133t-47 -144t-22 -163l6 -72q48 58 81 109t80 113t141 158t159 134 t146 68t303 60l228 -4l92 -8v-46l-60 12h-284q-172 -22 -248 -47t-138 -58t-134 -85q-38 -36 -86 -95t-118 -151l-126 -190q-30 -60 -72 -108v72l-12 70v118q2 74 24 157t53 142t92 128t103 112t72 111l-12 190v210q-132 -2 -204 24t-110 78t-42 196zM6370 853q12 35 44 57 t110 8q-54 -64 -30 -106t92 -48t94 18t6 334q-94 0 -136 5t-96 25q166 36 261 80t169 103t118 98t75 48t59 -12t60 -81q-70 28 -93 18t-56 -65t-36 -203t-3 -243t16 -111t54 -19t122 -57q-84 6 -115 -2t-48 -31t-16 -126t23 -201t72 -152t120 -79t196 -69q-88 12 -145 12 t-166 -18t-224 -66t-201 -124t-162 -161t-144 -211q2 114 42 221t100 186t107 126t111 91l-26 512l-8 48q-74 -40 -143 -34t-126 42t-73 94t-4 93zM7092 834l72 -20q74 -44 122 -85t90 -109l-46 12l-166 12q-64 -20 -67 -90t9 -151t35 -124t15 12t2 102t58 111q68 46 172 80 l138 26q-68 72 -110 140t-77 147t-59 201l-22 150q-44 52 -130 70q-36 -74 -36 -178v-306zM7219 291q-11 59 17 115t99 86t136 42t219 14q-80 82 -144 154t-117 180t-75 222t-16 246t34 237t65 170t111 164t182 175t218 127t356 145q-12 -72 6 -119t70 -78t126 -35t129 18 t99 74t57 112t-19 236q20 -22 43 -72t40 -128t5 -182t-43 -186t-83 -145t-146 -130t-166 -95t-139 -32t-102 19t-37 53t29 50t28 -2t12 -43t79 3t83 75t6 89t-72 61t-145 8t-184 -71t-180 -146t-127 -178t-64 -182t3 -210q66 104 98 155t105 111t151 93t161 41t156 2 t133 -51t47 -95t-45 -108q136 -30 195 -37t94 6t79 81q-70 14 -92 20t-6 35t60 29t85 -29t39 -68t-46 -85t-130 -84t-201 -49t-196 3t-155 32q26 96 -42 105t-135 -10t-125 -83t-68 -167t33 -195t144 -177t212 -123t208 -53t196 -4t181 48t135 92t55 145q-94 -62 -143 -55 t-77 52t-10 78t67 52t109 6t103 -42t54 -79t-2 -117t-89 -135t-170 -110t-206 -64t-194 -18t-192 22t-243 54t-226 49t-181 10t-154 -29t-94 -72t-16 -86q26 -52 -9 -24t-46 87zM7708 1406l94 78q62 48 120 70t178 32q-30 106 -11 146t61 62t86 20t42 -74q54 64 24 88 t-108 34q-98 -28 -168 -70t-132 -101t-128 -171z" />
<glyph unicode="%" horiz-adv-x="13030" d="M576 -108q122 50 128 64t50 68l-10 970l-34 28l-40 96l34 78l268 -6l140 40l104 38h134v-90q-44 -22 -28 -986l28 -100l90 -68l94 -26l-10 -146l-948 -4v44zM738 1652q22 102 53 132t181 42q112 0 204 -31t125 -73t2 -70t-36 -55t28 -47t28 -42t-83 -31t-123 -20 t-107 -11q-122 18 -186 65t-86 141zM1602 2216v66q228 46 320 76t187 86t131 109t108 109l50 -6q-22 -174 3 -323t53 -267l12 -1416q16 -56 27 -70t-45 -82l40 -690q34 -122 73 -136t133 -20l-6 -72l-898 6l-88 32q0 62 44 87t97 81t109 150v194l18 286l-12 774l-16 424 q28 128 -11 320t-129 282h-200zM2772 2088q144 16 256 22t190 36t178 72t228 138l72 10l28 -206q-44 -90 -61 -346t-5 -577t12 -761t19 -515t169 -113l46 -28l-6 -78l-284 -34h-686l-16 66q122 74 189 93t67 1423l6 134q54 50 40 279t-36 265t-334 36l-62 16zM4404 1436 q112 0 182 -17t180 -49t256 -65t410 -21q110 12 148 34h56q-6 -200 11 -225t117 59q124 110 218 158t240 58q150 -6 209 -22t164 -61t195 -120t112 -315v-664q6 -150 36 -177t148 -61l28 -84l-112 -12l-44 -26l-592 -6l-10 32q44 102 58 270q66 78 52 254q-32 28 -13 47 t19 255v66q-22 28 -14 67t-6 45t-18 38t8 58t24 62t-8 87t-61 84t-125 39t-173 -36t-187 -131t-176 -179t-106 -620q34 -104 79 -136t133 -60l-4 -172l-46 -28l-942 -4l-4 46q72 54 105 87t51 145l-18 864q-16 100 -64 137t-103 70t-147 81t-142 67t-78 27t-46 54z M7074 1524q0 34 106 45t187 33t134 53t92 98t89 185h66l-16 -418l16 -134q6 -664 48 -1034l-34 -446q60 -160 182 -220v-44l-792 -6l12 72q88 44 178 122q10 218 13 360t-25 576l-38 28l-6 94q-6 396 -56 480t-156 156zM7275 2451q11 39 117 105q66 -34 97 -36t56 11t78 -17 t81 -100t-5 -120t-89 -56t-168 -16q-56 -6 -81 41t-29 84t-36 51t-21 53zM7916 1424l22 56l128 12l180 12l66 144l100 10l184 -60l66 -68l78 12l46 22l38 -140l-10 -72q160 78 263 120t305 64q256 -22 370 -56t201 -76t148 -103t111 -267v-240q34 -90 34 -368 q-34 -100 -56 -200l34 -240l88 -150q50 -22 89 -61t117 -51v-72q-200 0 -292 -14t-176 -76l-44 18q-34 100 -64 117t-344 5l-10 50q90 90 106 118t38 612q-22 640 -78 713t-161 84t-200 8t-209 -25t-192 -86t-124 -198l6 -72l16 -56l-38 -22q22 -234 8 -390 q82 -118 126 -188t69 -117t115 -85l84 -12l-12 -54l-290 4q-256 12 -340 -28l-88 -28h-84q-56 52 -151 46t-151 -6q84 50 154 91t130 243l4 390l10 206q-46 84 -60 109t46 87q0 134 -150 290l-212 4zM8418 2048q16 46 52 96t114 84q78 -12 165 -37t215 -84t248 -98t201 -58 t120 -2t47 53t22 55t31 14t42 -19t41 -76q-12 -62 -53 -101t-143 -61q-156 18 -236 34t-161 50t-190 78t-201 72t-136 23t-90 -61l-56 16zM10618 810q24 118 71 190t139 134t217 132t248 103t295 49q268 -44 377 -97t215 -162t200 -331q-12 -346 -31 -494t-89 -240 t-212 -164t-281 -80t-463 -30q-350 50 -440 152t-140 217t-66 260t-40 361zM11054 563q0 -165 22 -243t53 -148t125 -106t209 -33t212 20t170 72t98 131t50 190t28 231t-48 198t-106 112t-156 67t-215 55t-181 -28t-145 -131t-97 -153t-19 -234zM11310 600q50 54 83 82 t74 11t70 -55t32 -66t-22 -42t-36 -51t-28 -39t-49 5t-67 50t-57 105z" />
<glyph unicode="&#x26;" horiz-adv-x="1514" d="M290 394q0 110 14 210q16 136 43 295t38 441t41 550t24 495t30 317l228 6q422 -6 446 -38q12 -18 12 -38t-36 -68l-216 -40l-210 28l-44 -76l-28 -192l216 -6h328l100 10l78 -32l-26 -158l-34 -22l-140 -8l-66 -12l-18 -118l-12 -196l42 -162l-14 -144l-34 -68l-18 -186 l-24 -46l30 -106l-30 -96l30 -88l-16 -44l-86 -14l-54 18l-22 24l-24 34l-28 68l12 136l22 148l16 232l24 104l2 134l-48 154l22 214q-98 22 -230 18q-30 -342 -42 -732t-48 -832q92 -16 184 -8t123 36t77 98h68v-36q-54 -216 -128 -255t-180 -49t-364 -10l-28 28z" />
<glyph unicode="'" horiz-adv-x="976" d="M362 2578l14 162l152 80l92 -92l2 -142l-28 -104l-10 -226l28 -236l-114 -138l-38 110l-80 324z" />
<glyph unicode="(" horiz-adv-x="1122" d="M272 1632q18 436 84 726q110 252 230 414t200 214q64 40 146 40h8q24 0 46 -6q74 -26 22 -174q-298 -242 -310 -292t-29 -73t-44 -64t-81 -133t-61 -226t-7 -280t76 -532q154 -508 229 -689t141 -279t204 -278l76 -110q-8 -144 -56 -154q-38 0 -72 23t-73 73t-60 114 t-90 144t-224 375t-239 552t-116 615z" />
<glyph unicode=")" horiz-adv-x="1130" d="M-90 2874q4 144 52 156q38 0 73 -22t74 -72t62 -113t94 -142t232 -370t251 -546t132 -611q-8 -438 -68 -730q-102 -252 -219 -416t-197 -220q-64 -44 -150 -44q-26 0 -48 6q-74 24 -70 204q44 110 191 164t157 104t27 73t43 65t78 135t55 227t0 280t-89 530 q-164 504 -244 683t-148 276t-212 273z" />
<glyph unicode="*" horiz-adv-x="1394" d="M234 2724l376 -86l74 278l26 98l98 -54l34 -360l108 -12l238 -52l28 -90l-242 -56l-122 -32l186 -220l-16 -162l-234 84l-128 266l-92 -102l-124 -130l-206 -18l14 178l166 118l82 78l-252 162z" />
<glyph unicode="+" horiz-adv-x="1594" d="M188 1096l24 134l266 64l188 56l98 640l198 10l-32 -620h146l358 42l-36 -158l-170 -100l-300 -32l-124 -644l-166 -42l2 658l-152 -20l-224 -76z" />
<glyph unicode="," horiz-adv-x="794" d="M152 -198l106 224l66 226l8 114l50 140l122 60l124 -130l-42 -166l-106 -252l-188 -296l-74 -96z" />
<glyph unicode="-" horiz-adv-x="1352" d="M162 1172l96 168l256 86h446l126 122l88 -54l8 -184l-214 -102l-462 2z" />
<glyph unicode="." horiz-adv-x="636" d="M190 310q60 66 102 100q24 20 52 20q16 0 36 -6q48 -22 83 -68t39 -78v-8q0 -28 -26 -44q-32 -16 -45 -60t-31 -44q-6 -4 -8 -4q-20 0 -52 8q-40 8 -82 59t-68 125z" />
<glyph unicode="/" horiz-adv-x="846" d="M-4 110l4 162l68 292l130 494l110 496l64 220l58 290l22 354l176 536l150 108l-14 -390l-94 -312l-66 -256l-30 -370l-72 -308l-58 -132l-92 -396l-42 -90l-66 -426l-68 -194l-10 -204l-32 -90l-82 10l-38 60l-10 64z" />
<glyph unicode="0" horiz-adv-x="978" d="M64 2138l50 252l110 238q200 122 304 142l150 -22l130 -100l58 -240l52 -462l-20 -102l-30 -342l24 -670l-140 -670l-184 -142l-208 -18q-240 294 -250 650q16 120 -3 280t-22 346t9 488zM244 1416q30 -342 36 -423t-13 -185t66 -380t217 -90l22 226l66 560l-76 478 l20 114l88 278l-76 556l-134 32l-34 6q-176 -136 -139 -446t13 -440t-56 -286z" />
<glyph unicode="1" horiz-adv-x="762" d="M-24 1976l66 88q450 462 606 536h84l18 -138q-30 -396 -102 -1032q-112 -418 -116 -605t-40 -325t28 -294l-32 -92q-24 -112 -78 -176q-102 10 -125 46t-18 124t18 157t27 207t35 472t63 486l-38 148q0 146 54 264l26 170l68 236l-156 -138l-180 -168l-104 -80l-78 6z " />
<glyph unicode="2" horiz-adv-x="1044" d="M12 234l96 180l34 168l86 154q156 308 438 668q112 270 96 504l-28 70l8 164q-66 156 -138 260l-96 30l-90 4l-90 -62l-66 -140l-12 -182q30 -88 114 -120l-12 -90l-114 6l-80 54l-88 98l-24 194l34 132q64 226 262 294l106 2h64q102 -46 167 -64t147 -116l86 -174 l50 -208l2 -450l-118 -316l-136 -228l-54 -32l-22 -92q-166 -250 -308 -446l-34 -140l-10 -96q226 -10 424 -28q78 60 126 188l52 -174l-40 -188l-160 -8l-198 -12l-296 -34l-134 74z" />
<glyph unicode="3" horiz-adv-x="1060" d="M-52 -46q48 362 322 450l-108 -236l-36 -240l84 24l196 246l72 42l160 598q-20 476 -83 588t-169 112l26 142l236 94l162 232l-48 314l-60 112q-224 -76 -314 -188q-114 -22 -150 128q50 106 110 128l94 66l122 64l162 20l154 -124l120 -206l28 -282q-28 -178 -178 -322 l-138 -94l138 -266l20 -528l-134 -564q-198 -304 -512 -446l-124 -20l-52 2q-94 26 -100 154z" />
<glyph unicode="4" horiz-adv-x="906" d="M50 1552l76 682l82 260l116 160l130 -2v-114l-114 -450l-40 -354l220 -46l60 226l30 176l48 184l68 112l128 -110l-70 -370l-28 -236l138 34l-16 -240l-150 -22l-36 -156l-22 -162q-56 -188 -54 -460l-46 -252l-2 -242l-56 -100l20 -156l-78 -54h-96l-40 262l68 638 l16 248l24 198l44 246l-210 48z" />
<glyph unicode="5" horiz-adv-x="936" d="M22 280v108l38 120l50 78h132l18 -68l-6 -62l-42 -18l-20 -86l40 -116l110 -84l88 -14l122 56l32 102l64 124l-58 310q10 616 -129 685t-325 -23l-10 180l-26 186l50 366l-34 88l14 112l68 142l92 92l164 4l78 -4l120 -6l190 6l82 -88l-30 -144l-96 -56l-240 30l-86 10 l-46 -108l-52 -92l20 -110l14 -348l168 12q238 -30 264 -522l26 -302l-12 -374l-50 -158q-68 -176 -210 -272l-164 -42l-98 10l-120 14l-104 58l-70 100z" />
<glyph unicode="6" horiz-adv-x="874" d="M30 1592l60 282l82 190l26 220l76 166q116 156 306 208l118 -30l70 -66l104 -152l126 -106l-26 -90l-90 -18l-68 90l-80 114q-134 44 -254 -108q-208 -442 -300 -1094l54 86l126 218l148 128l202 76q158 -52 122 -398q44 -304 -206 -986l-70 -220l-114 -84 q-96 64 -163 80t-133 168l-46 198l-66 256zM204 780l6 -124q48 -240 218 -372l68 140l108 392l-4 378l-20 210q-166 -92 -246 -300l-62 -180z" />
<glyph unicode="7" horiz-adv-x="906" d="M64 2528l22 180l146 -74l328 30l268 -30l182 -28l30 -50l18 -62l-82 -80l-100 -298q-72 -250 -84 -432l-26 -226l24 -124l-136 -382l-4 -200l-76 -70l-16 -142l-22 -322q-92 -174 -86 -316l-204 -162l-90 164l82 358q116 164 142 402l54 402l96 310l20 178l48 234l88 270 l52 172l-44 108l-140 70l-388 -26l8 -170l-80 44z" />
<glyph unicode="8" horiz-adv-x="942" d="M26 896q16 310 101 447t181 175q-126 182 -147 273t-27 403q44 200 92 298t97 146t133 94q90 -10 134 -40t99 -82t97 -108t63 -121t33 -171q0 -120 -11 -223t-34 -207t-69 -162t-118 -124q138 -160 182 -287t52 -319q-4 -180 -15 -259t-36 -193t-96 -212t-193 -152 q-160 22 -195 30t-98 76t-128 194t-97 524zM216 816q2 -112 25 -213t86 -196t124 -98t127 98t77 215t11 233t-10 185t-178 296q-218 -86 -241 -247t-21 -273zM311 2026q13 -142 58 -225t104 -118t98 -3t52 94t22 132t8 153t-9 144t-41 135t-60 116t-75 25t-65 -65t-61 -147 t-31 -241z" />
<glyph unicode="9" horiz-adv-x="922" d="M-14 404l24 92l82 18l60 -92l74 -118q122 -44 258 146q140 468 238 1324l-102 -156l-108 -100l-156 -36q-144 52 -196 298q-52 174 66 648q100 256 260 294q152 -50 246 -152l90 -200l60 -244l6 -636l-78 -648l-98 -420l-68 -168q-106 -160 -278 -212l-108 30l-64 68 l-126 100zM350 2176l20 -170l34 -178q168 -4 232 88t38 288q-44 214 -238 176z" />
<glyph unicode=":" horiz-adv-x="726" d="M172 318v8q4 38 40 89t84 77q20 8 38 8q28 0 54 -24q42 -38 102 -112q-26 -84 -69 -142t-83 -66q-34 -8 -54 -8q-2 0 -8 2q-18 0 -32 50t-46 70q-26 16 -26 48zM302 1252v10q6 42 39 100t79 86q18 8 34 8q28 0 52 -26q38 -44 96 -126q-24 -94 -65 -159t-77 -75 q-32 -8 -52 -8q-2 0 -6 2q-18 0 -31 56t-43 78q-26 18 -26 54z" />
<glyph unicode=";" horiz-adv-x="744" d="M50 -198l106 224l66 226l8 114l50 140l122 60l124 -130l-42 -166l-106 -252l-188 -296l-74 -96zM286 1134v8q4 44 37 102t79 84q20 10 36 10q28 0 50 -28q40 -42 98 -124q-26 -94 -66 -160t-78 -74q-32 -10 -50 -10q-2 0 -8 4q-18 0 -31 56t-43 78q-24 18 -24 54z" />
<glyph unicode="&#x3c;" horiz-adv-x="1226" d="M110 1378l312 328l474 250l70 -10l16 -136l-414 -236l-302 -234l166 -152l396 -134l176 -184l-42 -110l-192 -34l-212 114l-440 362z" />
<glyph unicode="=" horiz-adv-x="1262" d="M152 1364l98 132l268 52l440 6l136 36l62 -4l12 -136l-190 -58l-472 2zM154 1198l192 16l472 40l350 -8l-80 -116l-528 -40l-32 18l-298 -52l-64 4z" />
<glyph unicode="&#x3e;" horiz-adv-x="1172" d="M148 1812l42 110l192 34l212 -112l440 -362l8 -178l-312 -328l-474 -250l-70 10l-16 136l414 236l302 236l-166 150l-396 134z" />
<glyph unicode="?" horiz-adv-x="1064" d="M166 2210l12 258q66 222 228 312l138 14l76 4l130 -48l90 -96l66 -148l14 -116l-34 -92l-32 -196l-34 -216l-98 -250q-80 -294 -106 -552l52 -374l-200 54l-46 386l28 322l40 240l140 448l62 100l20 178l-20 136l-64 66l-84 -8l-142 -72q-36 -176 -38 -332zM280 244 q60 64 100 98q24 22 52 22q18 0 36 -8q48 -20 83 -66t41 -80v-6q0 -30 -28 -44q-30 -16 -43 -61t-33 -45q-4 -2 -8 -2q-18 0 -52 8q-38 6 -80 58t-68 126z" />
<glyph unicode="@" horiz-adv-x="2018" d="M210 864q44 290 73 472t161 366q98 114 226 264t402 192l144 -16l140 -76l216 -130q158 -160 240 -354l58 -320l-50 -324q-338 -476 -464 -418l-82 4l-56 74l-6 364l-178 -242l-208 -142l-208 224l-38 438l104 342l330 98l330 -278l-92 -34l-46 -58l-344 182l-112 -156 l-6 -310l198 -120l158 198l184 200l112 -6l20 -428l-50 -154l108 14l166 250q32 494 -144 748l-368 230l-282 -32q-310 -296 -406 -512l-38 -670l120 -306l350 -144q246 -56 806 180l-30 -138l-598 -208l-370 40l-300 200z" />
<glyph unicode="A" horiz-adv-x="1036" d="M-84 -74l48 434l108 412l34 222l24 242l56 252l74 240l58 262l46 444l-78 142l60 170l282 74l152 106l134 46l62 -12l44 -12l40 -234l-14 -172l-32 -180l-52 -278l-74 -202l20 -186q-60 -218 -60 -622l-64 -174l32 -328l-58 -116l16 -182l-82 -60l-100 2l-36 304l66 524 l62 314l30 228l4 314l70 462l-224 -24l-92 -538l-16 -314l-86 -194l-44 -202l-10 -252l-108 -312l-34 -222l-50 -330l-64 -96l-88 4zM594 2504h222l32 128l42 156l-286 -146z" />
<glyph unicode="B" horiz-adv-x="1024" d="M-62 98q46 376 138 938q32 200 72 300q-13 188 -13 326q0 94 6 164q15 174 24 330t51 324l6 52q-25 38 -25 78q0 8 1 16q36 50 80 100q2 70 60 94l72 -6l124 60l158 22l150 -130l116 -212l28 -294q-28 -184 -174 -334l-134 -96l134 -276l20 -548l-130 -586 q-192 -316 -498 -462l-120 -22l-50 2q-92 28 -96 160zM110 72l82 24l190 256l70 44l154 620q-18 494 -142 726h-102l-64 -732q-53 -155 -53 -331q0 -55 5 -113l-106 -246zM414 1928l202 58l158 242l-48 326l-58 116l-182 -62l-30 -324l24 -82z" />
<glyph unicode="C" horiz-adv-x="928" d="M-54 1316v66q0 204 40 450q118 384 250 626q160 194 311 306t239 136l66 8l118 -6l64 -28l36 -36l-6 -124q-34 -184 -124 -248l-98 58l26 132q-126 -18 -213 -70t-251 -274q-82 -40 -107 -157t-58 -247t-53 -494q22 -496 35 -677t61 -304t178 -191l144 236l124 -20 l-128 -338q-114 -138 -246 -214q-34 12 -62 41t-52 84t-28 117t-50 153t-120 396t-96 619z" />
<glyph unicode="D" horiz-adv-x="936" d="M-54 -120q40 564 90 828t91 615t86 628t45 521t-46 354v17q0 160 74 183q24 4 50 4q92 0 160 -42q84 -54 207 -215t231 -409q64 -286 72 -714q-44 -348 -139 -598t-265 -535t-245 -362t-99 -139t-66 -110t-79 -70t-77 -22q-50 12 -90 66zM200 254q64 36 111 109t131 248 t258 669q90 376 94 519q2 72 2 140.5t-2 133.5q-4 131 -59 222t-82 132t-45 64t-29 72q-3 14 -6 14q-8 0 -19 -89q-14 -124 -108 -360q-50 -364 -75 -641t-75 -565t-74 -568z" />
<glyph unicode="E" horiz-adv-x="806" d="M-76 116q0 128 16 246q20 160 51 346t80 522t84 651q29 262 29 491q0 46 -1 90q-1 38 -1 73q0 208 36 299l266 6q492 -6 520 -44q14 -20 14 -44t-42 -80l-344 14l-154 -28l-50 -90l-14 -154h372l-28 -140q-104 -36 -386 -56q-56 -526 -126 -988t-112 -1052 q71 -13 142 -13q36 0 72 3q108 10 144 42t90 116h78v-42q-42 -162 -98 -218t-179 -68t-423 -12l-34 32q-2 50 -2 98z" />
<glyph unicode="F" horiz-adv-x="724" d="M-56 116q0 128 16 246q20 160 51 346t42 506t33 635q12 178 12 341q0 126 -7 243q-5 78 -5 141q0 158 30 234l184 -70q208 25 338 25q145 0 194 -31q14 -20 14 -44q-12 -62 -54 -118l-344 14l-154 -28l20 -52l18 -224l364 44l76 -100q-124 -94 -424 -120 q-12 -412 -76 -852t-118 -1074q37 -57 37 -97q0 -95 -211 -95l-34 32q-2 50 -2 98z" />
<glyph unicode="G" horiz-adv-x="1076" d="M-14 1766l66 306l140 340l30 240l82 180q126 170 332 226l130 -32l224 -4l166 -92l138 -116l-28 -98l-98 14l-54 38l-40 36l-202 48q-214 -26 -344 -192q-278 -612 -404 -1336l38 -314l-6 -244q80 -280 264 -424l74 152l118 426l70 856l92 364q-168 28 -234 78l20 148 l90 56l86 -22l126 -106l172 -56l-40 -378q5 -34 5 -77q0 -368 -369 -1359l-70 -280l-124 -92q-106 70 -178 87t-144 183l-50 216l-72 278z" />
<glyph unicode="H" horiz-adv-x="874" d="M-124 -84l40 430l100 410l30 220l20 240l50 250l70 240l100 260l30 380l70 280l50 150l120 -30v-130l-20 -160l-20 -236l220 6l20 130l30 200l50 210l70 130l90 -10l100 -40v-116l-90 -34l-10 -170l-30 -180l-44 -276l-16 -424l-24 -186q-56 -214 -90 -534l-46 -288 l-4 -278l-56 -114l20 -180l-80 -60h-100l-40 300l70 730l16 284l24 226l46 310l54 140l-200 20l-54 -236l-66 -324l-74 -180l-40 -200l-6 -250l-100 -310l-30 -220l-44 -330l-60 -96l-88 4z" />
<glyph unicode="I" horiz-adv-x="516" d="M-24 106v32q2 90 19 216t35 192t42 284t45 438t46 315t28 372t28 438q14 88 14 154q0 56 -10 98q-12 50 -12 109q0 48 8 101q17 119 143 147q78 -22 109 -92t42 -231t11 -381q0 -222 -39 -449t-81 -500t-84 -522t-80 -403t-73 -210q-27 -44 -27 -104q0 -17 2 -36 q3 -25 3 -45q0 -50 -17 -77q-20 -32 -50 -32h-10q-68 8 -82 68q-10 48 -10 118z" />
<glyph unicode="J" horiz-adv-x="718" d="M-398 -478l70 262l112 94l236 -36v-126l-70 -76l-178 -58l92 -210l330 34q111 159 111 290v16q-2 44 -2 109q0 139 10 375q6 148 6 323q0 233 -11 513q100 632 101 828v12q0 196 -31 582q76 292 117 356t121 74q124 -42 172 -160q-107 -274 -107 -431v-14q1 -20 1 -43 q0 -150 -30 -384q-34 -268 -96 -796q8 -512 28 -644q-66 -630 -76 -718q-14 -98 -30 -144l-22 -56l-70 -174l-152 -130l-250 -28q-322 80 -382 360z" />
<glyph unicode="K" horiz-adv-x="856" d="M-54 2534l116 136l100 170l100 18l10 -106l26 -376v-554l38 44l62 112l164 328l190 356l68 -60l-28 -156l-120 -350l-112 -188l-62 -138l118 -286l150 -510l-34 -96l-120 -808l164 -314l-82 -34l-132 142l-106 352l44 996l-180 274l-8 -232l-2 -220q-36 -380 -120 -572 l-60 -356q-76 -131 -124 -131q-27 0 -46 43q26 438 80 984q20 196 54 294q-44 383 -44 510v10q1 80 1 173v97q-1 150 -105 448z" />
<glyph unicode="L" horiz-adv-x="762" d="M-24 236q32 430 110 1120q122 454 126 657t44 353q15 55 15 112q0 100 -45 208l34 98q26 122 86 192q110 -10 135 -50q21 -33 21 -105q0 -14 -1 -30q-5 -95 -20 -170t-30 -225t-38 -512t-67 -528l40 -160q0 -160 -58 -288l-28 -184q-74 -256 -78 -378l208 12l280 70 l112 86l86 -6l28 -118l-72 -94l-224 -52l-254 -68q-130 -10 -300 -90h-90z" />
<glyph unicode="M" horiz-adv-x="1290" d="M12 404l78 874l182 1144l98 226l138 22l14 -132l-8 -366l68 -472l-26 -544l14 -100l64 244l52 484q80 440 202 718l86 376l60 102l86 -6l72 -178l46 -24l26 -116l-26 -260v-260q-64 -199 -64 -390q0 -35 2 -70l-12 -480l-18 -500l-8 -460l-64 -214l-94 -90l-72 40 l-12 116q2 194 18 520v47q0 415 68 661q36 180 55 385t37 415q9 99 9 220q0 134 -11 296q2 -108 -162 -568q-62 -500 -94 -600q1 -17 1 -33q0 -306 -275 -723l-92 -2l-46 182l-52 318l50 116l-30 708q-70 -528 -152 -1220l-18 -496l44 -158l-2 -152l-128 -44l-90 64z" />
<glyph unicode="N" horiz-adv-x="1118" d="M-132 -134q52 450 232 910q68 500 102 600q-12 192 -12 331q0 91 5 159q13 174 38 346t79 422l-102 190l98 122l138 34l72 -24l88 -216l26 -284l22 -350l58 -474l-56 -116l32 -708q78 528 162 1108l20 496l-48 158v152l142 46l98 -66l14 -378l-78 -762l-200 -1146 l-108 -226l-152 -20l-14 130l8 366l-74 474l28 696l-28 536l-22 -114l-36 -718l-56 -486q-88 -440 -222 -718l-92 -374l-66 -104z" />
<glyph unicode="O" horiz-adv-x="1054" d="M102 1200q30 296 49 543t103 495q96 268 178 470t256 260l92 -22l90 -104l32 -88q34 -232 82 -564l-14 -434l-52 -376q-128 -704 -198 -1014t-320 -338l-114 88l-120 198zM326 1882l18 -1254l16 -282l68 -44q92 44 130 576l62 78l56 686q102 338 102 638q0 94 -10 184 l-100 162l-108 -60q-178 -426 -234 -684z" />
<glyph unicode="P" horiz-adv-x="900" d="M8 -20q44 206 93 527t79 893l50 96q-4 94 -4 182q0 227 29 418q41 266 63 453t58 325l64 94l168 6l156 -12l184 -48q68 -126 74 -274q-18 -140 -44 -213t-128 -175l-172 -54l-126 -62q-44 -64 -64 -146l-48 -428l-70 -526l-44 -394l-80 -426l-44 -230l-68 -88l-82 14z M526 2382q50 6 136 25t119 105q40 105 40 156q0 63 -231 100q-50 -132 -64 -386z" />
<glyph unicode="Q" horiz-adv-x="1040" d="M28 598v48l10 408l96 388l108 382l104 436q8 332 106 552l56 78l118 80l96 -4q160 -106 186 -329t66 -563q8 -119 8 -230q0 -141 -13 -271q-23 -231 -59 -595l-126 -522l-98 -228l106 -248l228 -144l160 126l154 306l16 -154l-130 -290l-152 -192l-114 -54l-166 96 l-180 220l-122 286l-136 -58l-172 48q-150 140 -150 428zM270 834q-23 -121 -23 -236q0 -132 31 -256l156 24l176 200l166 700q4 68 4 181q0 339 -40 1085l-112 42l-96 -146q2 -97 2 -188q0 -347 -30 -608l-210 -632z" />
<glyph unicode="R" horiz-adv-x="1060" d="M8 -20q44 206 69 368t63 562l50 138q24 782 65 1048t63 453t58 325l64 94l168 6l156 -12l100 -70q132 -118 144 -218q-24 -126 -71 -182t-129 -130q20 -1102 26 -1352t28 -462q17 -161 17 -286q0 -40 -2 -76q-7 -150 -75 -206l-50 -18l-62 30l18 432q-56 174 -69 455 t-25 1001l-12 388l-44 12q-44 -62 -62 -200l-56 -518l-70 -526l-44 -394l-80 -426l-44 -230l-68 -88l-82 14zM546 2492q50 6 119 28t109 50q37 26 37 58q0 38 -59 74q-56 34 -162 66q-45 -118 -45 -245q0 -16 1 -31z" />
<glyph unicode="S" horiz-adv-x="1102" d="M12 2434l6 150l56 150q144 170 374 226l170 -20l144 -74l106 -138l80 -194l14 -98l-88 -50l-62 36l-44 38l-44 106q-32 100 -88 138q-44 7 -88 7q-120 0 -244 -51l-80 -162l38 -152q166 -212 366 -392l102 -64l24 -100l64 -34l156 -246l76 -222l-8 -686l-80 -200 l-58 -156q-80 -118 -162 -131t-200 -63h-74l-122 2q-230 74 -304 318v130l68 144l120 100l114 44l124 -6v-132q-82 0 -152 -62l-24 -124l36 -146l132 -74l76 12l112 32q82 112 158 282l-8 176l32 76q3 46 3 92q0 212 -67 442q-326 422 -616 728l-100 168z" />
<glyph unicode="T" horiz-adv-x="1056" d="M-52 2686l334 16l426 34h280l480 -10h280l4 -62l-48 -50l-174 -30l-264 -26l-414 -20l18 -64l-92 -258q-100 -180 -100 -420l10 -350l-90 -190l10 -190v-180l-20 -240l-60 -280l-40 -210v-140l-40 -70l-102 40l-48 100l40 200q44 256 110 600v230l-40 120l20 240l-20 200 l72 78l10 228l42 270q60 202 68 238q1 5 1 9q0 28 -43 37l-40 20l-210 -20h-280l-40 40l-30 70z" />
<glyph unicode="U" horiz-adv-x="1036" d="M64 900l18 112l22 378l-38 736l126 742l86 182l194 -38l10 -174l-84 -160l-16 -248l-56 -618l86 -526l-18 -126l-82 -308l88 -610l134 -34l34 -4q140 122 140 365q0 60 -9 128q-29 229 -29 369q0 68 7 116q21 144 49 316q-36 376 -44 465q-3 28 -3 60q0 66 12 144 q13 85 13 215q0 46 -2 98q8 2 16 2q74 0 126 -140q-4 -47 -4 -99q0 -95 14 -209q22 -176 29 -380q4 -110 4 -257q0 -126 -3 -281l38 -410l-46 -278l-104 -264q-198 -140 -302 -164l-150 22l-132 106l-62 264z" />
<glyph unicode="V" horiz-adv-x="888" d="M-132 2816l102 128l144 36l76 -26l92 -224l28 -298l22 -366l60 -492l-58 -122l32 -740q82 552 170 1158l20 518l-50 164v158l150 48l100 -68l16 -396l-82 -794l-208 -1196l-112 -236l-158 -22l-18 136l10 382l-78 494l30 728l-30 560l-152 274z" />
<glyph unicode="W" horiz-adv-x="1350" d="M18 854l16 104l32 314l150 878l74 892l48 172l-4 8l84 -8l36 -62l-28 -124l-58 -596l-28 -420l-50 -1066l-8 -282l70 -212l150 260q84 268 140 1018l96 -130q32 -114 32 -212q0 -47 -7 -90q-5 -27 -5 -66q0 -153 72 -486l34 -126l116 160l60 238l42 214l-124 218l-28 160 l54 216l-78 290l-22 124l38 62l94 20l90 -26l162 -116l134 -134l-34 -94l-130 134l-184 84l98 -444l124 -478l-6 -270l16 -104l-68 -298l-118 -214l-148 -86l-78 -28q-106 14 -122 238l-66 150l-140 -204q-190 -234 -292 -246l-116 50l-58 72l-42 190zM1722 -572l38 84 l110 124l138 52l194 92l-98 -144l-104 -46l-78 -148z" />
<glyph unicode="X" horiz-adv-x="1090" d="M36 546l132 748l248 416l-124 208l-86 188l-60 348l-30 156l72 58l146 -376l140 -206l114 -100l116 172l152 422l118 318l72 -60l-28 -154l-74 -268l-92 -220l-170 -444l90 -238l104 -478l-36 -98l132 -1280l14 -262l-136 -42l-206 60l-2 116l138 -28l-148 868l-40 898 l-80 276l-134 -312l-84 -316l-26 -392l14 -380l-92 -82l-90 34z" />
<glyph unicode="Y" horiz-adv-x="906" d="M26 2228l2 216l92 146l102 14l4 -112l238 -308l84 -188l42 108l220 588l220 358l118 -22l-114 -204l-160 -454l-132 -412l-64 -276l-48 -258l-46 -506q-110 -398 -130 -1014l158 -190l24 -162l-202 198l-230 6l-44 128q128 286 142 1016q34 202 74 304q2 49 2 95 q0 385 -120 569l-96 306z" />
<glyph unicode="Z" horiz-adv-x="934" d="M2 292l16 388l30 120l182 430l328 666l324 842l-380 -132l-178 -22l-102 134l140 128l264 6l228 88l178 -44l112 -46l-104 -218l-248 -728l30 -136l-136 -256l-234 -340l-294 -622l40 -148l104 46q232 88 442 120q15 -183 15 -277q0 -28 -1 -48q-6 -87 -86 -131l2 238 l-192 -40q-170 -80 -368 -290l-90 54z" />
<glyph unicode="[" horiz-adv-x="934" d="M122 26l40 218q44 280 110 656v250l-40 132l20 262l-20 218l72 84l10 250l42 294l176 528l292 -10l304 20l-14 -156l-48 -54l-174 -34l-146 40l-70 -22l18 -70l-92 -280q-100 -198 -100 -460l10 -382l-90 -208l10 -206v-196l-20 -264l-60 -304l-40 -230l482 -104 l-108 -186l-414 62l-102 44z" />
<glyph unicode="\" horiz-adv-x="846" d="M-4 2786l8 84l10 64l38 60l82 10l32 -90l12 -206l66 -194l66 -424l42 -90l92 -398l58 -130l74 -308l28 -372l66 -256l94 -310l14 -390l-150 108l-176 536l-22 352l-58 292l-64 220l-110 496l-130 492l-68 294z" />
<glyph unicode="]" horiz-adv-x="984" d="M-92 -202l14 158l48 54l174 32l146 -40l70 22l-18 70l92 282q100 196 100 458l-10 382l90 208l-10 206v198l20 262l60 306l40 228l-482 106l108 184l414 -60l102 -44l48 -110l-40 -218q-44 -280 -110 -654v-252l40 -130l-20 -262l20 -220l-72 -84l-10 -250l-42 -294 l-176 -528l-290 12z" />
<glyph unicode="^" horiz-adv-x="1396" d="M110 1748l108 240l350 502l172 10l322 -354l244 -538l-8 -80l-134 -18l-230 468l-230 344l-146 -190l-130 -450l-178 -202l-108 48z" />
<glyph unicode="_" horiz-adv-x="2518" d="M-56 -614l100 170l580 -50l670 110l1210 -40l270 -20l-520 -170l-550 40l-850 -100z" />
<glyph unicode="`" horiz-adv-x="714" d="M80 2962l230 76l326 -214l198 -196l-86 -58l-226 180l-334 82z" />
<glyph unicode="a" horiz-adv-x="1002" d="M-148 38q0 96 102 246q58 25 115 25l41 -3q-20 -74 -20 -117q0 -25 7 -39q2 -4 2 -11q0 -47 -125 -195l-112 38q-10 26 -10 56zM24 422q18 27 18 66q0 22 -6 48v114q22 70 48 204q15 76 15 190q0 88 -9 200q-2 140 -2 257q0 262 12 404q18 205 64 395q8 190 118 374 l114 118q152 152 246 156l260 -188l16 -108l36 -436l38 -214l-42 -88l-40 -374l-186 -736l-28 -792l100 -96l-74 -76l-178 -8l-58 78l38 138l4 554l26 370l68 418l78 84l78 698l-354 -40l-48 -694q-114 -310 -149 -416q-21 -63 -20 -118q0 -38 9 -73q7 -26 7 -62 q0 -84 -39 -225q-12 -142 -118 -146zM448 2302l322 56l-18 86l-32 238l-128 30l-102 -90q-38 -244 -42 -320z" />
<glyph unicode="b" horiz-adv-x="1024" d="M8 -12q29 158 29 294q0 34 -2 66q-2 31 -2 71q0 168 31 491l50 138q24 782 65 1048t63 453q4 35 4 65q0 125 -76 136l-22 114l116 100l146 44l220 -18l158 -98q132 -118 144 -218q-4 -140 -37 -203t-129 -199q166 -818 178 -1258q0 -230 -64 -444q-72 -234 -192 -336 t-190 -158l-366 -190l-80 32zM238 216l306 136q168 302 181 576q2 37 2 83q0 285 -71 875l-74 324l-86 -26q-7 1 -13 1q-64 0 -64 -83q0 -11 1 -22l-56 -518l-70 -526l-44 -394zM432 2386q108 10 180 49t99 101q24 56 24 90v7q-3 35 -59 69t-162 66q-50 -132 -82 -382z" />
<glyph unicode="c" horiz-adv-x="862" d="M-10 962l6 306l34 42q12 108 30 244q78 136 114 238t54 257t42 306t78 333l42 78l88 36q212 166 368 190l196 -54q52 -84 94 -138l-90 -66q-96 109 -182 109h-10q-90 -7 -204 -161q-124 -376 -136 -544t-51 -278t-91 -348q-60 -310 -72 -495q-3 -41 -3 -84 q0 -149 33 -315q58 -30 102 -30q69 0 106 74l42 82l66 6l6 -190l-12 -84q-94 -66 -130 -192l-30 -146l-54 -12l-66 152l-134 126l-6 100l-70 42q-58 72 -148 156z" />
<glyph unicode="d" horiz-adv-x="1064" d="M-260 274l150 118l132 48l42 720l242 1418l120 322q108 130 230 204q34 -12 60 -40t48 -80t26 -111t48 -146t113 -376t89 -651q0 -194 -38 -428q-110 -366 -234 -596q-150 -184 -292 -290t-224 -130l-62 -8l-208 -8l-176 -40zM268 468q108 22 181 76t207 270 q70 42 86 153t40 236t26 473q-40 470 -59 641t-66 286t-163 175l-36 -170l-74 -750l-76 -206l-52 -1056z" />
<glyph unicode="e" horiz-adv-x="850" d="M-58 628q42 334 66 580l36 40q12 108 24 264q64 178 100 280t54 257t42 306t72 437l42 78l88 36l238 12q222 -30 400 -48q102 -66 144 -118l-54 -62q-50 -24 -90 -24q-18 0 -33 5q-51 15 -104 42t-110 38t-193 17l-24 -100q136 -12 223 -33t134 -48t53 -105l-80 -18 l-138 42l-150 24h-72q-66 -304 -90 -432t-63 -238t-91 -348q-60 -310 -72 -495q-3 -41 -3 -84q0 -149 33 -315l-42 -60l6 -54l102 12q82 24 136 66l42 82l66 6l6 -190l-12 -84q-352 -4 -370 -112l12 -102l-54 -12l-48 84l12 106l-66 6l6 120l24 60q-58 72 -130 94z" />
<glyph unicode="f" horiz-adv-x="794" d="M-58 962l24 246l36 40q12 108 24 264q64 178 100 280t54 257t42 306t72 437l42 78l88 36l238 12q222 -30 400 -48q102 -66 144 -118l-54 -62q-50 -24 -90 -24q-17 0 -33 5q-51 15 -104 42t-110 38t-193 17l-24 -100q136 -12 223 -33t134 -48t53 -105l-80 -18l-138 42 l-150 24h-72q-66 -304 -90 -432t-63 -238t-91 -348q-106 -365 -106 -599q0 -36 3 -69q19 -246 29 -548l-122 -138l6 -54q-12 -112 -28 -220l66 -162l-54 -12l-54 102l-30 76l-22 104l-44 182z" />
<glyph unicode="g" horiz-adv-x="944" d="M-54 1316v66q0 204 40 450q118 384 238 720q118 188 269 299t239 135l66 10l118 -6l64 -28l36 -36l-4 -124q-34 -184 -126 -248l-96 58l24 132q-126 -18 -250 -60t-174 -210q-82 -40 -104 -288q-30 -386 -50 -752q12 -265 12 -434q0 -146 -9 -220q-5 -41 -5 -82 q0 -118 41 -233q55 -155 151 -163l104 176q84 492 124 980l-40 210l-162 -44l-40 80l108 166l248 78l136 -6l-74 -246l-68 -850l34 -1000l-108 -44l-34 656l-74 -252q-114 -136 -262 -144q-48 110 -79 129t-77 110t-120 396t-96 619z" />
<glyph unicode="h" horiz-adv-x="940" d="M-122 118q54 488 73 698t59 556q58 248 150 590q56 388 94 642l34 124l158 18l54 -56l-32 -106l-30 -188l-54 -518l228 114l46 490l28 232l60 124l52 34q62 -26 112 -72l6 -92q-66 -92 -85 -332t-47 -548q1 -30 1 -59q0 -231 -43 -391q-32 -300 -57 -487t-34 -332 q-5 -77 -5 -161q0 -74 4 -154l-52 -52l-72 -10l-54 36l14 610l-32 80q10 216 40 324l84 480l-256 -64l-58 -132l-98 -298l4 -262l-42 -250l-58 -396l-20 -208l-26 -32l-106 -12z" />
<glyph unicode="i" horiz-adv-x="566" d="M20 -54l30 260v260q69 194 69 381q0 40 -3 79l14 480l20 500l10 460v10q0 192 147 191q11 0 23 -1l-30 40l-14 86l40 70l84 34l76 -14q39 -27 39 -73q0 -22 -9 -49l-46 -48q90 -6 110 -40l6 -24q-6 -50 -50 -88l-6 -54q0 -180 -30 -340t-60 -340t-110 -440 q-40 -180 -60 -385t-40 -415t-20 -560q-34 -76 -110 -120l-50 24z" />
<glyph unicode="j" horiz-adv-x="658" d="M-526 -322l38 134l72 12l56 -136l134 -36q202 52 294 180l26 142l38 56q36 93 36 249q0 52 -4 111l16 326l20 290l12 776l172 926l426 242l32 -46l-78 -100l-240 -108l24 -420l-72 -580l-124 -954l34 -256l20 -188l-124 -420l-122 -204l-74 -118q-86 -86 -153 -86 t-145 -38l-176 12z" />
<glyph unicode="k" horiz-adv-x="1046" d="M28 840l28 234q80 552 117 874t70 515q16 92 16 169q0 84 -19 150l214 230q11 -150 11 -288q0 -259 -39 -476q148 134 227 268t245 242l84 -50l-62 -118q-170 -182 -328 -464q168 -710 183 -983t28 -362t145 -989l-6 -214l-100 64l-90 274l-200 726q10 128 10 275 q0 304 -42 687l-96 412l-94 -68l-32 -578l2 -576l-6 -182v-256l-48 -202l-76 -76l-88 12l-48 60q48 178 48 304zM1882 -1050q-18 17 -18 35q0 25 36 53q180 100 222 106q8 3 16 3q34 0 78 -47l-72 -70q-138 -30 -262 -80z" />
<glyph unicode="l" horiz-adv-x="554" d="M-40 236q30 230 40 460l80 550q61 298 61 786q0 70 -1 144l2 426l-32 144l40 150l90 50l70 40l110 -30l-40 -250l-20 -400l-10 -390q-20 -420 -55 -580t-45 -320t-40 -360t-48 -314q-6 -40 -6 -73q0 -59 21 -92q29 -44 136 -44q17 0 35 1q188 92 386 198l126 46l40 -62 v-100l-50 -44l-90 -26q-120 -30 -210 -85t-320 -145l-154 -66l-68 14l-18 132v170zM600 -96q-5 36 -5 62q0 61 26 68q37 10 79 72q70 -20 110 -60q-8 -128 -102 -162z" />
<glyph unicode="m" horiz-adv-x="1436" d="M94 2280l22 368l82 180l28 96l80 32q106 -14 330 -314l82 -306l128 302q208 302 314 318l80 -30l34 -94l76 -238l48 -308l-16 -106l-20 -318l-108 -714l-142 -566l192 86l132 138l36 -98l-138 -136l-168 -120l-92 -28l-98 20l-40 64l24 128l80 298l-16 334l54 368l76 84 l-2 452l-36 304l-48 234l-108 -384q-152 -378 -170 -753t-68 -549l-98 -132q6 284 6 517q0 790 -68 1003l-154 302l-40 -238l-24 -302l52 -1100l-4 -334l40 -476l30 -128l-38 -66l-126 -14l4 8l-50 178l14 692l-120 924l-34 316z" />
<glyph unicode="n" horiz-adv-x="1026" d="M-32 258v122q24 150 41 313t28 395t40 496t50 484t69 426q8 204 22 337t64 231l92 14q78 -52 78 -144q0 -14 -2 -30q-4 -36 -4 -69q0 -71 20 -127l120 126q166 164 270 168l74 -46l20 -116l42 -294l6 -370l-28 -126l-62 -372l-198 -830l-178 -840l210 54l22 -120l-96 -90 l-104 -40l-94 -18l-92 36l-30 82l40 148l86 562l28 398l102 428l84 90l56 538l6 364l-16 284l-114 -68q-154 -122 -208 -438t-87 -477t-75 -495q-42 -424 -43 -490t-28 -194t-85 -348q-20 -44 -61 -44q-8 0 -17 2l-8 2q-22 8 -40 86z" />
<glyph unicode="o" horiz-adv-x="998" d="M28 928l12 384l50 332q124 618 192 891t436 353l114 -80q-14 -114 -14 -244q0 -331 88 -772q-28 -262 -46 -480t-102 -434q-54 -246 -96 -349t-172 -205l-188 -40q-125 63 -125 132q0 13 4 26q8 25 8 47q0 53 -46 91q-65 54 -115 348zM282 886l142 -128l112 176 q130 218 178 816l-46 600l28 368l-70 38q-90 -36 -94 -150l-108 -508l-124 -512q-37 -222 -37 -423q0 -144 19 -277z" />
<glyph unicode="p" horiz-adv-x="746" d="M-2 490q38 322 60 504l34 42q10 104 20 254q41 115 41 210q0 48 -10 91q-20 85 -20 179q0 49 5 100q16 150 37 297t65 423l40 76l122 94l184 14q148 -22 294 -90l56 -176l-40 -200q-92 -234 -194 -272l-118 -32l-126 6l-68 152l-22 -224l40 -646q-54 -300 -65 -452 t-11 -476l-38 -58l-8 -88q-2 -66 -20 -202l18 -104l-52 -12l-46 80l12 134l-64 6l26 144l20 138q-66 56 -172 88zM414 2562l58 -204l90 -128l158 64l62 148q-32 118 -146 154q-39 12 -77 12q-74 0 -145 -46z" />
<glyph unicode="q" horiz-adv-x="1034" d="M28 -26l58 102l140 178l134 58l-152 58q19 136 19 296q0 314 -73 722q34 260 56 478t110 434q60 244 103 346t177 202l188 36q123 -64 123 -133q0 -13 -5 -27q-9 -26 -9 -48q0 -53 45 -91q64 -55 108 -351l-20 -384l-58 -330q-136 -616 -209 -887t-265 -331l-104 -70 l298 -74l256 144l222 202l58 -58l-140 -222l-262 -198l-216 -78l-222 -20l-152 68l-180 -172zM346 458l68 -40q92 36 98 150l118 504l134 510q44 232 44 489q0 164 -18 339l-138 54l-82 -132q-162 -308 -222 -906l32 -602z" />
<glyph unicode="r" horiz-adv-x="992" d="M10 242q44 188 59 295q6 41 6 115q0 118 -15 318l24 244q50 590 56 811t27 391t59 296l60 84l166 6l222 30l98 -62q128 -108 142 -198q-26 -114 -78 -213t-188 -217q12 -578 99 -836t98 -351q4 -35 4 -103q0 -111 -11 -308l-106 -130l-104 -18l-34 126l52 192 q-56 158 -61 321t-55 777l-78 238l-82 84q-44 -80 -80 -178l64 -396l-68 -476l-42 -358v-268l-44 -210l-68 -80l-78 12zM378 2268q46 6 116 43t125 107q47 59 47 105q0 8 -2 16q-10 51 -41 97q-17 26 -78 26q-47 0 -121 -16q-49 -149 -49 -300q0 -39 3 -78zM592 -462 q40 192 48 374q18 8 33 8q48 0 67 -82q13 -163 13 -250q0 -63 -7 -86q-6 -60 -110 -94z" />
<glyph unicode="s" horiz-adv-x="852" d="M-110 304v116l40 130l50 84h136l20 -74l-6 -66l-44 -20l-20 -94l40 -124l114 -92l90 -14l126 60l34 110l52 86l-46 384l-36 410q-26 270 -110 574l-64 80l-40 180l-36 226l-34 204l-36 96l16 120l70 154l94 100l136 50l80 -4l90 -26q170 -94 240 -324l14 -270l-44 -110 l-80 -36l-76 -4l-10 170q-2 162 -40 344l-94 86l-88 10l-68 -70l-20 -140l20 -186l66 -104l94 -170l76 -196l20 -350l30 -334l40 -290l34 -216v-260l-24 -170q-70 -190 -216 -294l-170 -46l-100 10l-124 16l-108 62l-72 108z" />
<glyph unicode="t" horiz-adv-x="812" d="M-28 2854l16 70l94 26l440 -6l256 -24l280 -16l90 -30l-16 -54l-20 -50l-34 -36l-116 -4l-124 4l-80 30l-130 6l-6 -340l-50 -286l-30 -234l26 -326l-30 -280l-40 -124l-36 -360l-30 -86l-4 -380l-40 -180l20 -180l-20 -84l-86 -6l-50 46l-20 54l-20 70l-20 140l26 266 l60 450l40 450l34 202l16 262l-30 310l20 366l50 114l-26 90l-90 40h-204l-96 36z" />
<glyph unicode="u" horiz-adv-x="1060" d="M2 866l14 324l28 98l26 296l198 656l178 666l-210 -42l-22 94l96 72l104 32l94 14l92 -28l30 -66l-40 -118l-86 -446l-28 -314l-102 -338l-62 -198l-78 -300l16 -266l86 -180q154 142 219 363t98 348t75 393q42 336 43 388t28 153t85 275q20 35 61 35q8 0 17 -1l8 -2 q22 -8 40 -68v-98q-24 -118 -41 -247t-29 -312t-29 -389t-38 -380t-69 -338q-8 -160 -33 -269t-25 -395l-90 -10q-112 238 -113 337t-31 163l-114 -136q-90 -64 -166 -98l-82 16l-114 76z" />
<glyph unicode="v" horiz-adv-x="842" d="M38 1912l108 694l126 216l158 10l6 -130l-36 -362l40 -474l-80 -692l-12 -532l30 112l92 710l92 476q114 500 364 936l78 320l74 96l98 -12q-122 -638 -340 -1080q-108 -492 -152 -588q-4 -314 -30 -486t-64 -341t-112 -413l90 -196l-108 -114l-144 -24l-74 30l-74 220 l-6 284l4 348l-22 474l64 110l20 706q-83 -364 -143 -364q-26 0 -47 66z" />
<glyph unicode="w" horiz-adv-x="1404" d="M76 256l28 260v260q63 197 63 382q0 39 -3 78l14 480l18 500l8 460l76 276l94 90l72 -38l12 -118q-16 -254 -30 -582v-45q0 -416 -70 -663q-36 -180 -54 -385t-36 -415q-9 -105 -9 -234t9 -282q0 110 162 568q64 502 96 600q-1 18 -1 37q0 304 273 719l92 2l48 -180 l52 -320l-50 -116l28 -708q70 528 154 1220l24 434l-42 158v152l116 32l102 -52l14 -378l-86 -812l-182 -1146l-98 -226l-138 -22l-14 132l8 366l-68 472l-36 504l-68 -588q-80 -440 -202 -718l-84 -376l-60 -102l-86 8l-72 176l-46 24z" />
<glyph unicode="x" horiz-adv-x="886" d="M-164 -120l48 120l128 542l134 942l150 460q22 49 22 109q0 79 -39 177q-69 172 -127 288l-46 222l138 -48q106 -302 232 -492q170 252 201 374t101 302l174 22l-54 -214q-32 -346 -116 -550l-114 -128l-64 -126l154 -668l92 -404l36 -176l56 -252l2 -206l-50 -90 l-86 -12l-58 48v45q0 154 -24 261l-184 526l-2 354l-92 308l-320 -1240l-170 -596l-100 14zM1562 -444q11 73 41 73q14 0 31 -15q94 -63 94 -185v-5q90 -30 110 -94l-60 -60l-102 -4l-70 28q-71 58 -71 145q0 53 27 117z" />
<glyph unicode="y" horiz-adv-x="790" d="M10 2898l182 -22q72 -180 105 -363t169 -281q94 150 222 452l206 56l-48 -222q-62 -116 -134 -288t-134 -596l-76 -776l-28 -232l-144 -362q-26 -108 -26 -264v-42l-60 -48l-90 12l-54 90l2 206l60 252l38 176l138 558l84 452l-90 244l-144 234q-88 204 -122 550z M1570 -306q12 44 50 44q25 0 60 -18q210 -150 238 -194q20 -18 20 -52q0 -32 -20 -80l-116 46q-110 140 -232 254z" />
<glyph unicode="z" horiz-adv-x="744" d="M-136 46l82 82l66 250q72 254 84 440l26 232l-24 126l136 392l4 204l76 72l36 226l70 268q55 106 55 174q0 46 -25 74l-120 28l-266 34l-34 46l-20 74l-6 40l320 -24l318 22l266 -34l-30 -180l-112 -70l-116 -250q-116 -168 -142 -410l-32 -356l-106 -180l-12 -192 l-20 -182l-48 -240l-88 -276l-46 -210l44 -110l140 -72l284 -8l-8 174l80 -46l24 -242l-22 -184l-146 76l-224 2l-234 86l-182 30l-30 50z" />
<glyph unicode="{" horiz-adv-x="9202" d="M460 288q16 56 79 104t209 86t307 38t221 -7t126 28t106 113t56 282l-20 374q-126 -6 -205 9t-142 53t-85 73t-22 76t56 101t135 108t263 98l2 314q-66 -30 -208 -56t-222 -15t-108 48t-30 78t24 66t68 38t86 -13t46 -100q182 34 253 65t162 126t126 202t61 201l50 -948 q50 -6 222 -62q70 68 82 160t12 177t-114 149q6 32 76 73t172 85q38 -64 63 -75t64 10t50 49t-11 44t-19 35t63 48t171 60t234 41t403 10l82 -20q-172 -12 -267 -34t-193 -66t-183 -123t-215 -250t-280 -367q0 -82 75 -136t173 -108t250 -66q-94 -82 -94 -243t47 -326 t149 -298t290 -297q72 52 108 126l-6 558q-76 -14 -123 -14t-107 26t-115 70t-80 96t0 91t83 55t127 1t63 -39q-56 -46 -42 -87t69 -57t74 -7t31 73t0 139t-38 101t-126 58q234 88 291 138t123 110t146 78l102 -28q-108 -70 -137 -116t-33 -130t8 -366t25 -424t83 -211 t164 -145q-166 -16 -279 -46t-245 -120q44 -50 179 -89t247 -52t344 -17q-224 -46 -348 -37t-242 36t-288 77q-58 -50 -137 -144t-253 -348l6 48q112 282 224 502q-148 96 -297 220t-271 316q-94 -30 -170 -27t-115 26t-87 141q114 70 142 158t0 234t-63 218t-67 63 t-100 -51t-110 -70t-56 -84q26 -500 76 -550t158 -88q-138 -90 -266 -158q-82 62 -126 46t-44 -44t10 -63t-48 -85q70 -50 111 -110t47 -124t-13 -111t-87 -88t-136 -38t-117 19t-69 63t-20 97q60 -62 100 -57t65 39t22 80t-37 87t-86 44t-118 -25t-158 -56t-208 -48 t-196 -10t-140 29t-120 89zM652 302q24 -30 107 -31t138 6t166 39t203 74q-158 20 -256 16t-205 -32t-153 -72zM1368 1552q82 -44 164 -38l-6 120q-146 -18 -158 -82zM1866 1662l12 -110q90 54 82 73t-94 37zM2983 2207q9 35 55 52t104 9t96 -38t8 -46t-11 -33t158 -2 t264 54t233 89t266 114q36 -52 68 -70t80 -3t64 38t16 51t110 57t210 49t212 22t213 -20t183 -56t102 -73t5 -71t-63 -53t-124 -15t-144 31t-110 81q94 -38 147 -33t75 59q-90 38 -171 38t-177 -21t-178 -60t-150 -132t-79 -206t21 -689l12 -588q6 -132 48 -208t154 -170 t230 -152t260 -96q-110 -12 -211 4t-256 57t-240 79t-169 96q76 46 80 98t-45 79t-92 4t-69 -99q-82 50 -264 244q112 -24 168 19t79 136t17 330t-24 787q-26 90 -67 118t-114 38t-218 -19t-253 -51t-184 -19t-171 35t-129 76t-25 79zM4606 1939q2 39 33 74t84 59t205 43 t259 19t208 -9t269 -39q-44 -72 -13 -109t80 -41t85 21t40 83q298 -134 437 -197t237 -74t228 5q-16 80 11 104t73 39t80 15t82 -25t42 -69t-48 -83t-105 -61t-132 -31t-193 7t-250 38t-202 28t-130 -19t-76 -107t-2 -1038q12 -120 34 -180t85 -82t215 -22 q-56 -36 -190 -134l-114 -82q-68 70 -103 73t-70 -25t-22 -78t69 -82q-94 -64 -183 -108t-212 -79t-224 -54t-211 -9q136 40 221 76t148 91t136 160t98 178t25 1395q-16 88 -86 180t-169 148t-211 79t-191 14t-109 -38t-18 -48t76 -33l114 8q-58 -26 -99 -51t-91 -35 t-101 -4t-86 38t-33 71zM6198 853q12 35 44 57t110 8q-54 -64 -30 -106t92 -48t94 18t6 334q-94 0 -136 5t-96 25q166 36 261 80t169 103t118 98t75 48t59 -12t60 -81q-70 28 -93 18t-56 -65t-36 -203t-3 -243t16 -111t54 -19t122 -57q-84 6 -115 -2t-48 -31t-16 -126 t23 -201t72 -152t120 -79t196 -69q-88 12 -145 12t-166 -18t-224 -66t-201 -124t-162 -161t-144 -211q2 114 42 221t100 186t107 126t111 91l-26 512l-8 48q-74 -40 -143 -34t-126 42t-73 94t-4 93zM7047 291q-11 59 17 115t99 86t136 42t219 14q-80 82 -144 154t-117 180 t-75 222t-16 246t34 237t65 170t111 164t182 175t218 127t356 145q-12 -72 6 -119t70 -78t126 -35t129 18t99 74t57 112t-19 236q20 -22 43 -72t40 -128t5 -182t-43 -186t-83 -145t-146 -130t-166 -95t-139 -32t-102 19t-37 53t29 50t28 -2t12 -43t79 3t83 75t6 89t-72 61 t-145 8t-184 -71t-180 -146t-127 -178t-64 -182t3 -210q66 104 98 155t105 111t151 93t161 41t156 2t133 -51t47 -95t-45 -108q136 -30 195 -37t94 6t79 81q-70 14 -92 20t-6 35t60 29t85 -29t39 -68t-46 -85t-130 -84t-201 -49t-196 3t-155 32q26 96 -42 105t-135 -10 t-125 -83t-68 -167t33 -195t144 -177t212 -123t208 -53t196 -4t181 48t135 92t55 145q-94 -62 -143 -55t-77 52t-10 78t67 52t109 6t103 -42t55 -79q4 -22 4 -50q0 -30 -6 -66q-14 -68 -90 -136t-170 -110t-206 -64t-194 -18t-192 22t-243 54t-226 49t-181 10t-154 -29 t-94 -72t-16 -86q26 -52 -9 -24t-46 87z" />
<glyph unicode="|" horiz-adv-x="13894" d="M764 2260q0 62 44 128h602q74 28 172 44h602q116 30 258 42l86 -42h44v22q112 -2 214 -66q-30 -114 -42 -258l-44 -86v-172h108q96 36 152 130l42 172q10 122 44 258l86 214l214 -86h604q122 -20 214 -106q-114 -46 -236 -66h-302l-108 -192q42 -108 172 -108h216v-86 l-150 -108l-258 -22l-66 -214l-86 -732q-8 -124 -42 -258v-302l-44 -86l-42 -172l20 -558h302l150 150q44 -52 44 -130q-50 -88 -130 -172q-100 -38 -214 -42l-44 22v-22l-300 -22q-62 96 -86 216q30 114 42 258v300l-42 -236l20 -194l-64 44l-22 -302l-150 -42l-44 64v902 l44 -236v926l42 -108q8 234 44 366l44 258q-100 46 -216 64q78 -14 128 -42h-172v-108l-42 -258l-86 -238q-28 -100 -86 -214q2 -88 42 -172q-2 -26 -42 -44v-280l-44 -86q-32 -108 -42 -256l-44 -172q-26 -74 -42 -174q-32 -108 -44 -258q-66 -60 -172 -86l-42 172 q8 40 42 66v280l86 342q32 108 44 258q30 108 42 258q4 86 44 172l150 646l64 172v280l86 216q0 80 -42 128q-70 26 -172 44q-100 -2 -172 -22l-130 -22q-70 30 -172 44l44 -22l-88 -86q-26 -74 -42 -172l-64 -150l-66 -238l-42 -86l42 -108h-42v-322q-32 -108 -44 -258 q-26 -74 -42 -172l42 -150q-28 -6 -42 -44v-302q-6 -110 -44 -170q0 -94 -42 -172q-10 -124 -44 -258q-8 -124 -42 -258q-102 56 -172 150q30 108 42 258l22 194l64 214q4 128 44 258v302q-32 114 -44 258v300q26 70 44 172q30 116 42 388q12 -42 44 -42v300l86 130h-582 l86 22h302l-130 20h-300zM3002 150l86 280q6 126 44 258v194q-6 30 -44 44l22 -238l-22 66l-42 -66l-44 -258v-280zM3132 1098l42 128l-22 366l22 -64l86 388v366q-8 42 -42 64v-516l-86 -238v-494zM3174 -408l22 -42v42h-22zM4294 -622l128 1032l44 128l42 302v236l86 302 v366l44 -130v710l-44 236l44 216q148 -8 236 -44q90 -62 172 -172l152 -128l128 -236l86 -260l44 -236v-344l42 -216l-172 -624l-194 -452l-236 -364q-70 -98 -172 -194q-52 -106 -130 -214q-82 -94 -194 -174q-96 98 -106 260zM4594 -214v-150q84 72 152 172l322 644 l130 732l20 -130l66 646v44h-22q-40 106 -108 214l-172 302l-86 -324q-56 -186 -86 -408v-366l-130 -732q-4 -170 -42 -280q-4 -202 -44 -364zM5326 -408l22 -42l22 20l64 494l22 -128v128l42 582l44 172v302l64 408v-86l22 22v602q30 116 42 258l-42 280q56 46 86 128 q106 -32 214 -106l44 -280v-602l-44 -280q-2 -86 -42 -172l-130 -926q-14 -112 -42 -194l-44 -256q-28 -116 -86 -238l-42 -236q-26 -82 -44 -194h-128v194zM5692 2260l22 -44v44h-22zM5842 -64q30 6 44 44q4 24 42 42l174 42v-214l-22 22l-22 -194q28 -4 44 -42 q138 -60 300 -66l130 238v428l-172 1012l-172 538l-44 410l-42 192l300 344q184 -20 344 -128q110 -112 130 -302l42 -322q-80 -74 -214 -108v150l-44 324q-36 72 -128 128q-136 -22 -172 -172q22 -170 86 -344l172 -280l42 -194v-644l130 -604l-86 -622l-216 -236h-452 l-194 258v300zM6188 -644h172l-130 -22zM6962 2518l42 172h754q152 -42 344 -44l152 -42q-8 -68 -44 -150l-236 -22l-86 42h-152v-214l-42 172v-430l-44 42v-300q-6 -26 -42 -44v-366q4 -84 42 -172l-42 -64v-64l-44 -324q-28 -112 -42 -258q-8 -146 -44 -236v-386l-42 -324 q0 -156 -130 -258l-86 302v366l22 -86l22 278q4 120 42 258l86 860v366l-42 172q4 106 42 238v344l22 -44l22 130l-44 -22q-142 46 -300 64zM7220 2668l130 -22l42 22h-172zM7952 -64l86 366v558l42 216v840l44 214q48 82 130 152q30 90 86 192q102 -30 172 -128 q46 -76 64 -172l-64 -108v-280l-44 -150q-2 -60 -42 -130l-44 -516l-86 -194l-42 -214v-432l-44 86v-278l-22 -172l22 -108l-22 -42l-20 -238q-10 -106 -44 -236l-118 -48l36 48q-76 60 -90 216v558zM8382 -106l130 838q2 162 42 366l86 688v64l86 238l-42 366 q48 130 128 278q140 -80 172 -258l-42 -192v-366l-22 64l-22 -624l-20 -64l-66 -518l44 -42l-44 -280q-6 -170 -42 -302l-64 -256l-22 -172q68 2 150 42l280 44q130 50 258 150l86 882l86 258v1204h-22l-20 302l194 128q82 -20 150 -64v-408l-44 -22l-42 -1184l-44 -280 l-86 -258v-300q-10 -38 -42 -66v-406l-44 -152q42 -50 108 -86q116 28 258 86q112 26 236 86l-86 322q-122 68 -172 236l22 280l16 -154l6 284q8 38 42 64l130 602q56 144 86 324l44 366l86 322q6 158 106 322l138 18h102q124 -4 298 -38q146 -40 302 -108q88 114 236 172 h238l128 -64q126 -78 172 -238q-44 -128 -128 -280q-82 -130 -86 -322l-44 -172l44 -64l42 -1120l-20 66l-22 -260l42 -320v-66l44 -194v-278l-108 -44h-108v560l-42 -64v406l-44 324v64l44 216l-22 64l-22 150v430l-42 280v130l-44 22l-42 -152l-86 -730v-324l-34 68 l-140 -1122l-128 -408q-68 8 -150 44l64 644l42 214q28 158 86 324v818q4 94 44 192v302q32 18 42 64v324l22 -86l44 300l-152 -42l-42 42l-322 86q58 -74 150 -128q148 -20 172 -172l-108 -44l-42 44q-108 2 -238 42q-62 -136 -108 -300q-18 -118 -64 -258 q-22 -134 -86 -260l-128 -1182v-66l24 -192l-68 22q18 -32 64 -44q106 28 216 128l108 44v-258l-344 -86l86 -42q-4 -62 -44 -130l-220 -106l92 -22q28 -74 42 -172q-72 -30 -172 -44q2 90 4 216h-48l-580 -258h-108v300l-42 130h-130l22 -44q-166 -4 -280 -42l-280 -44 l-258 -86l-22 64v410zM8404 -450l22 -108v86zM8468 2346l22 -44v44h-22zM8640 -236l22 -42v42h-22zM8856 1786l22 -42v42h-22zM9394 -708l22 -44v44h-22zM9760 1830l22 -130v108zM10418 -218l202 4l-144 -32zM11524 2216q6 -28 44 -42l128 42q58 68 66 172l-194 86z M11588 1700l22 -42v42h-22zM11782 1916l22 -44v44h-22zM11804 2346l22 -44v44h-22zM12126 2238q66 142 216 280l216 172h300q18 -32 66 -44q38 -8 64 -42q112 -116 172 -302q56 -106 86 -214l-86 -44q-120 116 -216 280q-16 46 -64 64h-236l-86 -20q-84 -126 -130 -260 q56 -152 194 -278l236 -258q118 -98 216 -280l194 -280q56 -196 64 -452v-474l-130 -364q-56 -148 -192 -216l-238 -64l-258 -22l-128 108q-76 122 -130 280l-44 128l108 214l216 86q72 0 150 -42q-70 -120 -172 -236q22 -170 150 -322q130 38 280 108l130 278v388l22 86 q-4 150 -44 300l-194 302q-82 148 -214 280l-258 214q-102 112 -216 280z" />
<glyph unicode="}" horiz-adv-x="9774" d="M544 278q8 54 33 95t119 99t255 93t503 21q66 6 111 45t89 167v426q-76 4 -190 36q-72 10 -152 58q-58 32 -108 106l-22 48q2 54 22 130q42 58 103 106t134 84t165 70l36 12v154q-148 -38 -278 -44t-196 27t-106 123v94q44 84 91 116t163 42q106 -36 140 -108l210 80 q148 162 177 237t59 177l24 190l40 -4l-16 -150q-16 -86 -53 -196t-126 -202t-166 -123t-197 -59q-24 80 -80 99t-152 -15l-66 -78q12 -122 53 -159t191 -55q166 28 288 54l48 12v-248q-44 -6 -117 -30t-139 -63t-123 -92t-83 -145q10 -80 84 -130q54 -48 142 -72 q52 -18 142 -24h106v-496q-68 -158 -117 -198t-155 -50l-322 12q-178 -28 -262 -58t-152 -74t-102 -128q30 -66 93 -99t293 -55q168 22 298 48l154 58q54 28 128 40l54 -16l42 -58v-78l-34 -40l-48 10l-60 60q-14 36 0 94l-48 -58v-120l24 -70q46 -62 96 -80t116 -20t120 18 t124 80q32 74 42 168q-14 70 -60 154q-42 52 -94 94l34 12l12 58l-22 60l36 20l34 4l70 -60l36 12l142 82l118 96l12 22q-102 42 -139 67t-85 77v82l-12 342l-4 80q146 104 240 158q20 -36 48 -96q34 -96 62 -304q-34 -140 -86 -180q-70 -48 -82 -106l12 -24q36 -54 96 -106 q86 -36 186 -36l96 24q58 -108 133 -184t233 -206l184 -122l-114 -232l-58 -154q-32 -92 -72 -236l-38 6l16 64l46 166l130 306l24 66q-122 88 -290 214q-136 134 -214 262q-126 -22 -172 -16t-116 48q-106 -88 -173 -131t-167 -93l-70 64l-10 -108q58 -82 100 -152l24 -106 l-12 -72q-18 -68 -72 -144q-74 -56 -127 -71t-189 -9q-106 32 -174 94q-38 86 -40 178v48l-130 -36q-112 -30 -308 -54q-166 8 -248 31t-166 93zM888 306l74 36l88 24l98 18h100l112 -2l-64 -26l-110 -34l-104 -18l-134 -6zM1548 194l36 -58h22l-10 82l-48 20v-44z M1592 1566q48 22 80 36l4 -58q-54 4 -84 22zM1996 2962h48l12 -190v-248l12 -308q56 44 94 89t150 112t153 69t65 -32l10 46q54 58 228 124t376 90h154l236 -12l226 -40l46 -20l-12 -36l-94 24q-56 10 -173 21t-240 13t-232 -8t-206 -37t-189 -83l-72 -48q4 -42 36 -70 q-34 -44 -84 -60l-34 60l-36 24q-54 -18 -117 -51t-155 -103l-30 -48l40 -6l60 -30q54 -80 54 -188l-16 -118l-26 -72q-16 -14 -46 -22q-52 18 -186 50l-16 174v142l-12 24l-12 294v248l-4 106zM2060 1636l2 -58l44 26l2 18zM2074 2162l6 -252l24 -36q134 -24 164 24 q12 54 12 124t-13 106t-62 58t-101 8zM2104 1294l12 -160l12 -182q2 -92 124 -178l-40 72q-2 40 10 94q122 74 146 156l2 98l-18 112l-68 166q-76 -48 -168 -118zM2470 1744l70 90t112 160t176 232t179 178t151 87t191 61t289 36l132 -4l24 -12l-12 -36q-94 12 -201 6 t-213 -27t-280 -99q-172 -138 -211 -186t-114 -149t-146 -206t-99 -147l44 -46q120 -78 196 -110t172 -30l36 12l24 -34l-86 -22l-92 4l-46 20q-130 66 -206 116t-90 106zM2873 1254q1 82 53 160l80 72l20 -38l-60 -58q-38 -50 -58 -130l58 70q72 40 154 54l72 -6l58 -12 l54 -16l38 -18q-44 70 -88 79t-108 11l-2 34q64 6 154 -20q58 -36 82 -106l12 -90l-32 -100q-78 24 -110 76q62 30 76 78q-34 26 -114 50l-92 4l-88 -20q-58 -54 -84 -132q30 -74 78 -123t109 -80t173 -53l72 12h24v-236l6 -108l-4 -174l-30 -56l-54 -40l-48 46 q-120 124 -278 342q-60 144 -114 336q-10 110 -9 192zM2920 1118l38 -182l68 -174q84 -148 204 -284l98 -92q38 38 40 140l-12 378h-70q-104 18 -228 90zM2966 -454q20 48 60 106q40 66 94 154q62 84 140 178l126 138q186 -54 418 -104q200 -18 278 -7t220 43l118 34v-46 q-122 -32 -247 -54t-240 -14t-240 29t-297 69l-146 -160q-118 -154 -224 -330l-22 -46zM3062 2156q2 74 18 103t76 65q66 22 150 28q78 -14 158 -52q44 -58 74 -84q94 6 169 26t142 46t261 106t339 121t289 69t364 46q158 -16 241 -33t150 -43t133 -78q44 -54 48 -140 q-20 -56 -82 -108l-36 -12q36 -22 119 -32t245 -42q114 -24 180 -56q66 -12 142 -58q52 -20 118 -60q52 -18 130 -58q42 -20 106 -36l24 -12q64 -22 166 -24q62 8 84 92q88 52 137 63t133 11q82 -28 142 -82q14 -40 12 -98q-34 -88 -91 -131t-171 -85l-116 -18 q-252 2 -356 21t-310 49q-78 -32 -114 -94v-378l10 -426l12 -272q30 -88 88 -111t162 -29l60 16l10 -40l-60 -12h-82l-94 12q-82 36 -104 93t-26 143l-12 178q-10 414 -12 472l14 378q60 92 116 104t148 -4t180 -33t264 -31q174 16 249 37t124 61t75 126q-24 62 -59 84 t-79 31t-101 -9t-96 -47t-37 -105l-88 -12q-60 2 -142 12l-24 10l-142 48l-130 60q-48 28 -118 58q-50 28 -130 60q-54 26 -118 48v-36l-24 -72l-60 -12q-58 28 -70 66l24 40l42 40q-82 4 -148 17t-226 33l-184 6l-130 -2q-160 -22 -249 -40t-143 -58t-86 -102v-70l48 -60 q88 -42 214 -34q154 66 210 118l36 46l-82 -12l-36 -22q-48 0 -106 22q56 36 142 48q66 -2 166 -24l140 -46q48 -28 103 -70t92 -95t77 -119v-1302q-2 -66 -27 -137t-57 -126t-78 -106t-103 -94t-191 -103q-132 -42 -218 -62l-66 -18l-4 44l48 12q66 16 118 23t121 36 t128 73t110 100t82 112t91 188v1360q-44 72 -92 126t-104 88t-136 64l-70 16l-36 -46q-42 -32 -100 -64t-148 -66l-134 -16q-110 32 -162 98l-12 -106v-212l12 -356l12 -366l14 -148q60 -136 135 -208t241 -176l130 -60q54 -16 154 -42l88 -4l6 -48q-90 6 -169 25t-141 46 t-153 83t-177 132t-124 147t-52 277v330l-14 366l-14 276l-6 68l8 184q26 86 65 139t95 95t121 65t159 37q34 -52 72 -85t142 -69q56 -8 142 -12q86 20 146 46l30 50v82q-58 66 -122 95t-138 47t-256 38q-184 -16 -418 -62l-154 -36h-46q8 -24 36 -34l-12 -48l-22 -36 l-60 -20l-48 32q-24 26 -24 72l-68 -32q-168 -72 -233 -101t-135 -55t-262 -80l-142 -16l-32 -6l-4 30q-26 52 -90 96q-70 14 -148 20q-82 -22 -134 -76l-6 -76q64 -78 127 -110t138 -49t162 -14t185 23t164 37t184 37l128 -18l52 -36q28 -56 42 -284v-296l12 -284 q12 -248 -1 -311t-81 -137q-56 -12 -118 -10l-48 10l-54 16l66 -88l88 -94q108 -106 208 -166q16 58 37 88t47 26t70 -30l-12 -60q-74 -36 -83 -51t47 -49q182 -96 331 -141t248 -62t285 -25l164 8v-46h-306q-244 40 -383 80t-259 96t-217 124t-202 169t-152 165t-89 122 l48 12l48 -24q116 -40 167 -37t81 41t34 174v106l-22 366v260q-12 256 -60 320q-142 18 -268 -8t-228 -52q-240 -18 -333 3t-165 62t-128 135zM3144 1508q18 36 118 58q172 82 250 148t131 109t125 67q76 -4 128 -20t122 -44v-34q-52 12 -117 33t-143 27q-68 -40 -173 -133 t-153 -120t-127 -57t-137 -46zM3552 228q66 50 131 74t138 40t197 32l72 10q-22 -44 -146 -54q-136 -28 -258 -66l-56 -30l72 -30q128 -28 234 -44l188 -16l190 4h84l10 -36h-46l-206 -6l-126 6l-158 14q-122 20 -194 42t-126 60zM3770 1520q18 118 50 158t77 63t121 27v-48 h-82q-84 -44 -118 -130v-402l12 -296l12 -130l10 -86q18 -64 88 -131t146 -103l4 -34q-50 12 -122 64l-110 106l-48 82l-28 540zM4392 370q80 82 63 88t-63 -88zM4420 2484q-12 -66 7 -75t36 5t-43 70zM4692 2052l6 -68q46 88 122 130t216 76l154 14l74 6q-64 26 -122 66 l-60 60h-94q-70 -26 -154 -84q-48 -46 -106 -118zM5006 -330q76 2 326 18q212 36 343 81t217 92t142 107l-64 28l-36 46q12 60 70 82q60 -38 72 -94l10 -22l14 10l28 30q246 180 350 254l26 -36q-102 -64 -350 -240q-190 -172 -278 -217t-201 -84t-309 -73l-118 -16l-154 -8 h-82zM5154 2406h70l52 4l44 -16l18 -6l-22 -24l-66 -2l-60 20l-30 6zM5886 2028l36 -12l24 12l12 68l-12 12zM5974 42l94 -70l-70 118zM6288 846q48 94 75 120t115 34l104 -40l-10 -56l-14 -66l72 -10l-22 218l-84 -4q-80 26 -126 59t-86 99h60l130 24q150 48 229 92 t183 134q86 70 126 84t100 14q68 -42 88 -80t34 -82l16 114q42 186 76 252t78 127t168 203q216 162 341 216t357 144l108 34l-12 -58q-20 -44 -24 -93t25 -75t105 -46q70 4 142 36q54 54 94 130l-12 106l-48 202l28 6l44 -136q22 -136 17 -185t-42 -96t-93 -71t-174 -26 q-120 72 -124 119t6 117q-188 -62 -343 -131t-247 -134t-173 -147t-145 -187t-90 -210t-40 -283q18 -184 40 -271t60 -173l72 -130q32 -48 94 -108l46 -58h-94q-86 -12 -143 -29t-149 -83q-34 -62 -50 -148q12 -58 58 -130q38 -22 144 -62q-60 86 -66 114t6 56t62 54t192 32 l124 -6l176 -34l290 -70q222 -38 361 -15t253 74t260 175q40 92 45 155t-37 141q-78 64 -226 86q-98 -28 -127 -65t-26 -77t45 -96l66 -30q68 4 132 38q-46 -72 -102 -108t-137 -62t-153 -26t-238 28q-138 48 -200 81t-114 82t-86 105t-64 126l-12 96q24 108 71 157t153 79 h84l16 -16l-24 -82q74 -30 294 -58q228 28 307 62t153 92q52 66 56 146q-44 48 -124 92l-68 -4l-66 -32l-24 -70q10 -30 52 -44l50 10q-22 -26 -62 -44l-64 8l-94 22l-42 8l20 42l10 68l-4 48q-44 44 -114 82l-102 22l-136 2l-94 -12l-130 -46q-48 -26 -118 -84l-70 -58 q-66 -74 -96 -142l-12 58l12 48q24 88 60 154t71 114t85 102t105 93t116 65t120 32t96 -7t69 -79q-24 -58 -84 -96l-48 -12l26 72l-54 10q-52 -26 -88 -70q0 -76 34 -114q56 -14 120 -16h72q94 22 148 50t108 64t119 98t104 138t64 168t16 199t-31 169t-128 238l24 12 l82 -118l60 -120l36 -152v-154q-28 -144 -71 -234t-109 -157t-137 -115t-181 -98l24 -24q52 -34 82 -106l-10 -82v-24l66 -18q-4 90 28 125t106 53q90 -6 154 -54q50 -48 58 -130q-16 -60 -59 -109t-107 -85t-161 -58t-233 -28q-176 18 -338 56l30 88q-98 -4 -148 -43 t-82 -151q32 -154 72 -214t92 -106l166 -90q166 -48 280 -68l144 2q90 30 168 74l-88 38q-50 52 -66 128q10 64 42 103t84 58t107 17t101 -13t96 -55t78 -182l-12 -90q-54 -104 -131 -170t-271 -154q-152 -40 -294 -58q-136 12 -346 60q-364 76 -481 81t-172 -16t-62 -56 t27 -89t69 -67t135 -21l2 -36l-50 -4q-84 6 -176 40q-162 64 -248 154q-34 64 -46 136t-8 178t51 118t175 -6l-78 60q-54 42 -158 80q0 422 28 510l48 60l72 -24l46 -24l-36 82q-34 62 -69 83t-73 8t-106 -67q-152 -122 -217 -158t-142 -64t-225 -52q72 -52 176 -72 q92 0 102 -68l12 -164v-24l-26 -42q-84 4 -126 44q40 106 -18 119t-87 -2t-75 -107q-10 -84 42 -186q104 -60 162 -65t144 3l6 -238l12 -240q-156 -172 -201 -232t-78 -133t-47 -144t-22 -163l6 -72q48 58 81 109t80 113t141 158t159 134t146 68t303 60l228 -4l92 -8v-46 l-60 12h-284q-172 -22 -248 -47t-138 -58t-134 -85q-38 -36 -86 -95t-118 -151l-126 -190q-30 -60 -72 -108v72l-12 70v118q2 74 24 157t53 142t92 128t103 112t72 111l-12 190v210q-132 -2 -204 24t-110 78t-42 196zM7092 834l72 -20q74 -44 122 -85t90 -109l-46 12 l-166 12q-64 -20 -67 -90t9 -151t35 -124t15 12t2 102t58 111q68 46 172 80l138 26q-68 72 -110 140t-77 147t-59 201l-22 150q-44 52 -130 70q-36 -74 -36 -178v-306zM7708 1406l94 78q62 48 120 70t178 32q-30 106 -11 146t61 62t86 20t42 -74q54 64 24 88t-108 34 q-98 -28 -168 -70t-132 -101t-128 -171z" />
<glyph unicode="~" horiz-adv-x="1298" d="M96 1370q4 76 13 197t115 133q74 -2 135 -17t190 -86t242 -133t194 -71t109 16t30 94t9 104t28 33t42 -24t35 -70t14 -80q0 -80 -16 -140q-30 -114 -154 -128q-124 0 -270 42t-294 135t-198 99t-80 -23t-64 -113l-50 -8z" />
<glyph unicode="&#xa1;" horiz-adv-x="700" d="M146 -376q0 148 29 299t61 332t64 346t60 267t55 139t19 93t10 82q16 20 38 20h8q50 -4 62 -44q6 -32 6 -78v-22q0 -60 -13 -143t-26 -127t-32 -189t-34 -291t-34 -209t-22 -247t-21 -291t-3 -167t3 -139t-108 -97q-58 14 -82 60t-32 153t-8 253zM220 1548v8q0 28 26 44 q32 16 45 60t31 44q6 4 8 4q20 0 52 -8q40 -8 82 -59t68 -125q-60 -66 -102 -100q-24 -20 -52 -20q-16 0 -36 6q-48 22 -83 68t-39 78z" />
<glyph unicode="&#xa7;" horiz-adv-x="1114" d="M110 2408l24 116l60 90l106 70l68 20l80 8q164 -14 288 -112l62 -82l-38 -94l-60 -44l-64 -24l-44 106q-24 -2 -92 104l-98 30l-76 -20l-44 -62l14 -94l54 -114l78 -48l114 -84l106 -104l88 -218l96 -204l94 -174l74 -128l54 -166l14 -116q-18 -140 -120 -246l-134 -76 l-128 -26l28 -66l134 -184l32 -156l-10 -116q-48 -132 -170 -214l-146 -46l-90 -4h-112l-100 32l-80 96l-10 198l36 60l94 16l82 -54l-2 -44l-36 -18l32 -90l96 -10l82 -2l106 52l58 60l-66 212l-106 146q-42 178 -200 422l-46 116l-48 148l-46 132l-36 60l6 82l26 108 l74 82l114 64l116 -26l-110 144l-70 104l-78 134l-70 122l-50 50zM358 1612l36 -178l54 -104l70 -138l82 -124l128 -144l154 70l24 68l-118 234l-48 98l-156 224l-90 48l-80 -2z" />
<glyph unicode="&#xa8;" horiz-adv-x="558" d="M34 2986q66 8 130 -16q86 -98 86 -162q0 -20 -8 -38l-94 -26q-104 102 -104 132q0 4 2 6q14 24 -12 104zM398 2962q0 24 10 46l112 30q126 -118 126 -156q0 -4 -2 -8q-20 -30 12 -126q-18 -2 -36 -2q-60 0 -120 20q-102 120 -102 196z" />
<glyph unicode="&#xab;" horiz-adv-x="1332" d="M110 1252l6 126l250 328l382 250l56 -10l12 -136l-332 -236l-242 -234l114 -190l300 -146l136 -142l8 -102l-154 -34l-170 114zM424 1328l376 362l372 294l56 -10l12 -136l-332 -236l-242 -234l114 -192l258 -196l180 -90l6 -102l-154 -34l-170 114z" />
<glyph unicode="&#xad;" horiz-adv-x="1352" d="M162 1172l96 168l256 86h446l126 122l88 -54l8 -184l-214 -102l-462 2z" />
<glyph unicode="&#xb0;" horiz-adv-x="700" d="M68 2562q0 40 6 84l34 62l104 80l154 12q124 -18 248 -76l46 -148l-34 -168q-66 -176 -314 -192l-128 52q-116 122 -116 294zM230 2624l14 -136l100 -118l120 50l48 114q-24 90 -112 117t-170 -27z" />
<glyph unicode="&#xb4;" horiz-adv-x="668" d="M80 2634l198 196l326 214l230 -76l-108 -130l-334 -82l-226 -180z" />
<glyph unicode="&#xb6;" horiz-adv-x="1618" d="M178 1676q64 1256 664 1334h250l430 -12h250l4 -70l-42 -58l-156 -34l-204 -14l-44 -774l-164 -2208l-144 48l134 2906l-112 -32l-76 -340q-88 -206 -88 -480l8 -402l-14 -224l10 -218l-66 -212l-18 -276l-54 -320l-102 -234v-158l-36 -82l-90 46l-44 116l36 228 q40 292 98 686l-6 232l-186 22l-176 212zM1788 -264l116 6l146 -74l244 -12l82 -68l-164 -48l-256 74z" />
<glyph unicode="&#xb7;" horiz-adv-x="220" />
<glyph unicode="&#xb8;" horiz-adv-x="718" d="M84 -630l20 84l60 16l118 -78l148 28l18 90l-120 116l-2 316l110 -54l116 28l-50 -306l94 -34l42 -116l-36 -150l-240 -68l-204 62z" />
<glyph unicode="&#xbb;" horiz-adv-x="1332" d="M110 872l332 236l242 234l-114 190l-258 198l-180 90l-8 102l154 34l172 -114l474 -460l-374 -362l-372 -294l-56 10zM534 900l332 236l242 234l-114 190l-302 146l-136 142l-6 102l154 34l170 -114l366 -412l-6 -126l-252 -328l-380 -250l-56 10z" />
<glyph unicode="&#xbf;" horiz-adv-x="1102" d="M204 -426l34 92l32 196l34 216l98 250q80 294 106 552l-52 374l200 -54l46 -386l-28 -322l-40 -240l-140 -448l-62 -100l-20 -178l20 -136l64 -66l84 8l142 72q36 176 38 332l198 18l-12 -258q-66 -222 -228 -312l-138 -14l-76 -4l-130 48l-90 96l-66 148zM532 1754v6 q0 30 28 44q30 16 43 61t33 45q4 2 8 2q18 0 52 -8q38 -6 80 -58t68 -126q-60 -64 -100 -98q-24 -22 -52 -22q-18 0 -36 8q-48 20 -83 66t-41 80z" />
<glyph unicode="&#xc0;" horiz-adv-x="1036" d="M-84 -78l48 380l108 364l34 196l24 212l56 222l74 212l58 230l46 392l-78 126l60 148l282 66l152 94l134 40l62 -10l44 -12l40 -206l-14 -150l-32 -160l-52 -292l-74 -130l20 -164q-60 -192 -60 -548l-64 -154l32 -288l-58 -102l16 -162l-82 -52l-100 2l-36 268l66 462 l62 276l30 200l4 278l50 254l-224 -22l-72 -320l-16 -278l-86 -170l-44 -178l-10 -222l-108 -276l-34 -194l-50 -290l-64 -86l-88 4zM158 2938l166 96l396 -114l230 -206l-76 -70l-140 90l-314 122zM574 2088h222l52 216l42 138l-286 -128z" />
<glyph unicode="&#xc1;" horiz-adv-x="1036" d="M-84 -78l48 380l108 364l34 196l24 212l56 222l74 212l58 230l46 392l-78 126l60 148l282 66l152 94l134 40l62 -10l44 -12l40 -206l-14 -150l-32 -160l-52 -292l-74 -130l20 -164q-60 -192 -60 -548l-64 -154l32 -288l-58 -102l16 -162l-82 -52l-100 2l-36 268l66 462 l62 276l30 200l4 278l50 254l-224 -22l-72 -320l-16 -278l-86 -170l-44 -178l-10 -222l-108 -276l-34 -194l-50 -290l-64 -86l-88 4zM174 2628l198 196l326 214l230 -76l-108 -130l-334 -82l-226 -180zM574 2088h222l52 216l42 138l-286 -128z" />
<glyph unicode="&#xc2;" horiz-adv-x="1036" d="M-84 -78l48 380l108 364l34 196l24 212l56 222l74 212l58 230l46 392l-78 126l60 148l282 66l152 94l134 40l62 -10l44 -12l40 -206l-14 -150l-32 -160l-52 -292l-74 -130l20 -164q-60 -192 -60 -548l-64 -154l32 -288l-58 -102l16 -162l-82 -52l-100 2l-36 268l66 462 l62 276l30 200l4 278l50 254l-224 -22l-72 -320l-16 -278l-86 -170l-44 -178l-10 -222l-108 -276l-34 -194l-50 -290l-64 -86l-88 4zM446 2628l168 246l220 162l118 -6l240 -230l72 -110l-22 -100l-74 -22l-122 92l-88 208l-98 86l-158 -156l-160 -214l-92 8zM574 2088h222 l52 216l42 138l-286 -128z" />
<glyph unicode="&#xc3;" horiz-adv-x="1036" d="M-84 -78l48 380l108 364l34 196l24 212l56 222l74 212l58 230l46 392l-78 126l60 148l282 66l152 94l134 40l62 -10l44 -12l40 -206l-14 -150l-32 -160l-52 -292l-74 -130l20 -164q-60 -192 -60 -548l-64 -154l32 -288l-58 -102l16 -162l-82 -52l-100 2l-36 268l66 462 l62 276l30 200l4 278l50 254l-224 -22l-72 -320l-16 -278l-86 -170l-44 -178l-10 -222l-108 -276l-34 -194l-50 -290l-64 -86l-88 4zM282 2834q2 46 7 120t61 80q38 0 70 -9t101 -52t129 -81t103 -44t58 9t16 58t5 64t15 19t22 -15t19 -42t8 -49q0 -48 -10 -86 q-16 -68 -80 -76q-66 0 -144 26t-156 82t-105 59t-43 -14t-34 -69l-26 -4zM574 2088h222l52 216l42 138l-286 -128z" />
<glyph unicode="&#xc4;" horiz-adv-x="1036" d="M-84 -78l48 380l108 364l34 196l24 212l56 222l74 212l58 230l46 392l-78 126l60 148l282 66l152 94l134 40l62 -10l44 -12l40 -206l-14 -150l-32 -160l-52 -292l-74 -130l20 -164q-60 -192 -60 -548l-64 -154l32 -288l-58 -102l16 -162l-82 -52l-100 2l-36 268l66 462 l62 276l30 200l4 278l50 254l-224 -22l-72 -320l-16 -278l-86 -170l-44 -178l-10 -222l-108 -276l-34 -194l-50 -290l-64 -86l-88 4zM430 2654l26 294l66 80l124 -26l-56 -310l-80 -54zM574 2088h222l52 216l42 138l-286 -128zM708 2686l68 292l176 62l-78 -242z" />
<glyph unicode="&#xc5;" horiz-adv-x="1034" d="M-10 158l112 412l34 222l26 242l86 288l60 262l48 444l-80 142l62 170l294 74l158 106l140 46l64 -12l46 -12l42 -234l-14 -172l-34 -180l-54 -278l-78 -202l22 -186q-54 -162 -14 -418l-66 -174l32 -328l-60 -116l18 -182l-86 -60l-104 2l-38 304l68 524l24 166l24 172 l4 314l72 390l-232 -24l-96 -466l-10 -258l-94 -248l-10 -252l-112 -312l-36 -222l4 -602l-66 -96l-92 4l-56 44zM234 2828q0 36 6 76l32 60l94 74l146 10q116 -18 230 -70l44 -138l-32 -156q-62 -164 -294 -178l-118 48q-108 112 -108 274zM384 2886l14 -128l92 -110 l114 46l44 106q-24 84 -105 110t-159 -24zM568 2064h230l34 170l44 156l-298 -146z" />
<glyph unicode="&#xc7;" horiz-adv-x="928" d="M-54 1316v66q0 204 40 450q118 384 250 626q160 194 311 306t239 136l66 8l118 -6l64 -28l36 -36l-6 -124q-34 -184 -124 -248l-98 58l26 132q-126 -18 -213 -70t-251 -274q-82 -40 -107 -157t-58 -247t-53 -494q22 -496 35 -677t61 -304t178 -191l144 236l124 -20 l-128 -338q-114 -138 -246 -214q-34 12 -62 41t-52 84t-28 117t-50 153t-120 396t-96 619zM-6 -630l20 84l60 16l118 -78l148 28l18 90l-120 116l-2 316l110 -54l116 28l-50 -306l94 -34l42 -116l-36 -150l-240 -68l-204 62z" />
<glyph unicode="&#xc8;" horiz-adv-x="806" d="M-76 122q0 128 14 246q20 160 51 346t55 366t59 495t28 581t35 372l266 6q492 -6 520 -44q14 -20 14 -44t-42 -80l-344 14l-154 -28l-50 -90l-14 -154h372l-28 -140q-104 -36 -386 -56q-56 -526 -101 -832t-87 -896q106 -20 214 -10t144 42t90 116h78v-42 q-42 -162 -98 -218t-179 -67t-423 -11l-32 30q-2 50 -2 98zM276 2924l166 96l396 -114l230 -206l-76 -70l-140 90l-314 122z" />
<glyph unicode="&#xc9;" horiz-adv-x="806" d="M-76 122q0 128 14 246q20 160 51 346t55 366t59 495t28 581t35 372l266 6q492 -6 520 -44q14 -20 14 -44t-42 -80l-344 14l-154 -28l-50 -90l-14 -154h372l-28 -140q-104 -36 -386 -56q-56 -526 -101 -832t-87 -896q106 -20 214 -10t144 42t90 116h78v-42 q-42 -162 -98 -218t-179 -67t-423 -11l-32 30q-2 50 -2 98zM256 2714l230 206l396 114l166 -96l-262 -82l-314 -122l-140 -90z" />
<glyph unicode="&#xca;" horiz-adv-x="806" d="M-76 122q0 128 14 246q20 160 51 346t55 366t59 495t28 581t35 372l266 6q492 -6 520 -44q14 -20 14 -44t-42 -80l-344 14l-154 -28l-50 -90l-14 -154h372l-28 -140q-104 -36 -386 -56q-56 -526 -101 -832t-87 -896q106 -20 214 -10t144 42t90 116h78v-42 q-42 -162 -98 -218t-179 -67t-423 -11l-32 30q-2 50 -2 98zM302 2622l168 246l220 162l118 -6l240 -232l72 -110l-22 -100l-74 -20l-122 92l-88 206l-98 88l-158 -158l-160 -212l-92 6z" />
<glyph unicode="&#xcb;" horiz-adv-x="806" d="M-76 122q0 128 14 246q20 160 51 346t55 366t59 495t28 581t35 372l266 6q492 -6 520 -44q14 -20 14 -44t-42 -80l-344 14l-154 -28l-50 -90l-14 -154h372l-28 -140q-104 -36 -386 -56q-56 -526 -101 -832t-87 -896q106 -20 214 -10t144 42t90 116h78v-42 q-42 -162 -98 -218t-179 -67t-423 -11l-32 30q-2 50 -2 98zM154 2692q26 100 10 131t102 173l94 -32q10 -22 10 -48q0 -80 -86 -206q-66 -28 -130 -18zM516 2862q10 20 28 38q58 54 204 76q64 -28 100 -82q-88 -46 -100 -79t-192 -41z" />
<glyph unicode="&#xcc;" horiz-adv-x="618" d="M12 70v24q2 74 19 175t35 154t42 228t45 351t46 253t28 299t28 351t4 202t-4 169t143 118q78 -18 109 -74t42 -185t11 -307t-39 -360t-81 -401t-84 -419t-80 -324t-73 -168t-25 -111t-14 -99q-20 -26 -50 -26h-10q-68 8 -82 56q-10 38 -10 94zM76 2990l230 76l326 -214 l198 -196l-86 -58l-226 180l-334 82z" />
<glyph unicode="&#xcd;" horiz-adv-x="516" d="M-24 70v24q2 74 19 175t35 154t42 228t45 351t46 253t28 299t28 351t4 202t-4 169t143 118q78 -18 109 -74t42 -185t11 -307t-39 -360t-81 -401t-84 -419t-80 -324t-73 -168t-25 -111t-14 -99q-20 -26 -50 -26h-10q-68 8 -82 56q-10 38 -10 94zM234 2628l198 196l326 214 l230 -76l-108 -130l-334 -82l-226 -180z" />
<glyph unicode="&#xce;" horiz-adv-x="570" d="M-10 70v24q2 74 19 175t35 154t42 228t45 351t46 253t28 299t28 351t4 202t-4 169t143 118q78 -18 109 -74t42 -185t11 -307t-39 -360t-81 -401t-84 -419t-80 -324t-73 -168t-25 -111t-14 -99q-20 -26 -50 -26h-10q-68 8 -82 56q-10 38 -10 94zM102 2632l72 124l240 260 l118 6l220 -182l168 -276l-4 -42l-92 -8l-160 240l-158 176l-98 -98l-88 -232l-122 -104l-74 24z" />
<glyph unicode="&#xcf;" horiz-adv-x="580" d="M0 70v24q2 74 19 175t35 154t42 228t45 351t46 253t28 299t28 351t4 202t-4 169t143 118q78 -18 109 -74t42 -185t11 -307t-39 -360t-81 -401t-84 -419t-80 -324t-73 -168t-25 -111t-14 -99q-20 -26 -50 -26h-10q-68 8 -82 56q-10 38 -10 94zM226 2604l30 430l144 -42 l-46 -346zM450 2486l60 454l152 94l-68 -368z" />
<glyph unicode="&#xd1;" horiz-adv-x="1118" d="M-132 -134q52 388 232 788q68 434 102 520q-20 274 -7 425t38 300t79 365l-102 164l98 106l138 30l72 -20l88 -188l26 -246l22 -304l58 -410l-56 -100l32 -614q78 458 162 960l20 430l-48 136v132l142 40l98 -56l14 -328l-78 -662l-200 -992l-108 -196l-152 -18l-14 114 l8 316l-74 412l28 602l-28 466l-22 -100l-36 -622l-56 -422q-88 -380 -222 -622l-92 -322l-66 -92zM582 2572q2 46 7 120t61 80q38 0 70 -9t101 -52t129 -81t103 -44t58 9t16 58t5 64t15 19t22 -15t19 -42t8 -49q0 -48 -10 -86q-16 -68 -80 -76q-66 0 -144 26t-156 82 t-105 59t-43 -14t-34 -69l-26 -4z" />
<glyph unicode="&#xd2;" d="M28 1012q30 268 49 493t103 451q96 244 178 427t256 237l92 -20l90 -96l32 -80q34 -210 82 -512l-14 -394l-52 -342q-128 -642 -198 -923t-320 -307l-114 80l-120 180zM252 1632l18 -1140l16 -258l68 -40q92 40 130 524l62 72l56 624q134 404 92 748l-100 146l-108 -54 q-178 -388 -234 -622zM396 2956l230 76l326 -214l198 -196l-86 -58l-226 180l-334 82z" />
<glyph unicode="&#xd3;" d="M28 1012q30 268 49 493t103 451q96 244 178 427t256 237l92 -20l90 -96l32 -80q34 -210 82 -512l-14 -394l-52 -342q-128 -642 -198 -923t-320 -307l-114 80l-120 180zM104 2656l198 196l326 214l230 -76l-108 -130l-334 -82l-226 -180zM252 1632l18 -1140l16 -258 l68 -40q92 40 130 524l62 72l56 624q134 404 92 748l-100 146l-108 -54q-178 -388 -234 -622z" />
<glyph unicode="&#xd4;" d="M28 1012q30 268 49 493t103 451q96 244 178 427t256 237l92 -20l90 -96l32 -80q34 -210 82 -512l-14 -394l-52 -342q-128 -642 -198 -923t-320 -307l-114 80l-120 180zM152 2632l72 124l240 260l118 6l220 -182l168 -276l-4 -42l-92 -8l-160 240l-158 176l-98 -98 l-88 -232l-122 -104l-74 24zM252 1632l18 -1140l16 -258l68 -40q92 40 130 524l62 72l56 624q134 404 92 748l-100 146l-108 -54q-178 -388 -234 -622z" />
<glyph unicode="&#xd5;" d="M28 730l12 384l50 332q124 618 192 891t436 353l114 -80q-48 -402 74 -1016q-28 -262 -46 -480t-102 -434q-54 -246 -96 -349t-172 -205l-188 -40q-148 74 -121 158t-38 138t-115 348zM282 688l142 -128l112 176q130 218 178 816l-46 600l28 368l-70 38q-90 -36 -94 -150 l-108 -508l-124 -512q-64 -382 -18 -700zM472 2834q2 46 7 120t61 80q38 0 70 -9t101 -52t129 -81t103 -44t58 9t16 58t5 64t15 19t22 -15t19 -42t8 -49q0 -48 -10 -86q-16 -68 -80 -76q-66 0 -144 26t-156 82t-105 59t-43 -14t-34 -69l-26 -4z" />
<glyph unicode="&#xd6;" d="M28 1012q30 268 49 493t103 451q96 244 178 427t256 237l92 -20l90 -96l32 -80q34 -210 82 -512l-14 -394l-52 -342q-128 -642 -198 -923t-320 -307l-114 80l-120 180zM252 1632l18 -1140l16 -258l68 -40q92 40 130 524l62 72l56 624q134 404 92 748l-100 146l-108 -54 q-178 -388 -234 -622zM294 2692q26 100 10 131t102 173l94 -32q10 -22 10 -48q0 -80 -86 -206q-66 -28 -130 -18zM656 2862q10 20 28 38q58 54 204 76q64 -28 100 -82q-88 -46 -100 -79t-192 -41z" />
<glyph unicode="&#xd8;" horiz-adv-x="1074" d="M-154 -142l14 42l14 86l138 326l112 264l14 -126l10 -148l-88 -220l-132 -120zM92 1200q30 296 49 543t103 495q96 268 178 470t256 260l92 -22l90 -104l32 -88q34 -232 82 -564l-14 -434l-52 -376q-128 -704 -198 -1014t-320 -338l-114 88l-120 198zM316 1882l18 -1254 l16 -282l68 -44q92 44 130 576l62 78l56 686q134 444 92 822l-100 162l-108 -60q-178 -426 -234 -684zM328 1130l148 430l88 304l138 226l60 90l-12 -104l-20 -164l-28 -124l-154 -262l-82 -298l-122 -466zM936 2490l204 382l40 -52l32 -18l-14 -34l6 -38l-130 -286 l-100 -182z" />
<glyph unicode="&#xd9;" d="M64 900l18 112l22 378l-38 736l126 742l86 182l126 -38l10 -174l-84 -160l-16 -248l12 -618l86 -526l-18 -126l-82 -308l88 -610l134 -34l34 -4q174 152 131 493t-22 485t49 316q-36 376 -44 465t2 166t24 193q92 30 170 -42q-12 -132 3 -277t12 -349t-9 -538l38 -410 l-46 -278l-104 -264q-198 -140 -302 -164l-150 22l-132 106l-62 264zM546 3054l242 -12l226 -318l114 -254l-102 -24l-144 250l-282 198z" />
<glyph unicode="&#xda;" d="M64 900l18 112l22 378l-38 736l126 742l86 182l126 -38l10 -174l-84 -160l-16 -248l12 -618l86 -526l-18 -126l-82 -308l88 -610l134 -34l34 -4q174 152 131 493t-22 485t49 316q-36 376 -44 465t2 166t24 193q92 30 170 -42q-12 -132 3 -277t12 -349t-9 -538l38 -410 l-46 -278l-104 -264q-198 -140 -302 -164l-150 22l-132 106l-62 264zM388 2622l198 196l326 214l230 -76l-108 -130l-334 -82l-226 -180z" />
<glyph unicode="&#xdb;" d="M64 900l18 112l22 378l-38 736l126 742l86 182l126 -38l10 -174l-84 -160l-16 -248l12 -618l86 -526l-18 -126l-82 -308l88 -610l134 -34l34 -4q174 152 131 493t-22 485t49 316q-36 376 -44 465t2 166t24 193q92 30 170 -42q-12 -132 3 -277t12 -349t-9 -538l38 -410 l-46 -278l-104 -264q-198 -140 -302 -164l-150 22l-132 106l-62 264zM438 2584l168 276l220 182l118 -6l240 -260l72 -124l-22 -112l-74 -24l-122 104l-88 232l-98 98l-158 -176l-160 -240l-92 8z" />
<glyph unicode="&#xdc;" d="M64 900l18 112l22 378l-38 736l126 742l86 182l126 -38l10 -174l-84 -160l-16 -248l12 -618l86 -526l-18 -126l-82 -308l88 -610l134 -34l34 -4q174 152 131 493t-22 485t49 316q-36 376 -44 465t2 166t24 193q92 30 170 -42q-12 -132 3 -277t12 -349t-9 -538l38 -410 l-46 -278l-104 -264q-198 -140 -302 -164l-150 22l-132 106l-62 264zM574 2610l30 430l144 -42l-46 -346zM798 2492l60 454l152 94l-68 -368z" />
<glyph unicode="&#xdf;" horiz-adv-x="1274" d="M-76 270l56 126l42 84h120l18 -74l-6 -66l-38 -20l-36 -124l92 -32l80 -14l110 60l30 110l44 86l-40 384l-32 410q-22 270 -96 574l-56 80l-34 180l-32 226l-30 204l-30 96l14 120l60 154l82 100l120 50l70 -4l78 -26q148 -94 236 -290l32 -144l-64 -116l-70 -36l-66 -4 l-10 170q-22 8 -54 190l-82 86l-78 10l-60 -70l-16 -140l16 -186l58 -104l82 -170l68 -196l16 -350l26 -334l36 -290l30 -216v-260l-22 -170q-60 -190 -188 -294l-148 -46l-88 10l-108 16l-96 62zM648 458l38 100l66 32l66 2l8 -152q2 -144 14 -246l80 -78l74 -8l58 62 l16 126l-16 166l-56 92l-80 152l-64 176l-18 314l-26 298l-32 260l-30 194v232l20 152q60 170 184 264l144 40l84 -8l106 -14l92 -56l60 -96l14 -102v-104l-34 -116l-42 -76h-116l-16 66l4 60l38 18l16 84l-34 110l-96 82l-76 14l-108 -54l-28 -100l-44 -76l40 -344l30 -366 q22 -242 92 -514l56 -72l32 -162l32 -202l28 -182l30 -86l-12 -108l-60 -138l-80 -88l-116 -44l-66 4l-78 22q-144 84 -182 230z" />
<glyph unicode="&#xe0;" horiz-adv-x="898" d="M24 -20q26 42 10 116v118q22 74 48 212t6 402q-8 472 10 683t64 407q8 198 118 388l114 122q152 156 246 160l260 -194l16 -112l36 -450l38 -220l-42 -92l-40 -386l-186 -760l-6 -558l100 -98l-74 -80l-178 -8l-58 82l38 142l-18 312l26 382l68 430l78 88l78 720 l-354 -40l-48 -718q-114 -320 -149 -429t-11 -197t-32 -296q-12 -146 -118 -150zM350 2968l236 58l308 -238l182 -208l-90 -52l-212 196l-326 108zM446 1920l322 58l-18 90l-32 246l-128 30l-102 -92q-38 -252 -42 -332z" />
<glyph unicode="&#xe1;" horiz-adv-x="898" d="M24 -20q26 42 10 116v118q22 74 48 212t6 402q-8 472 10 683t64 407q8 198 118 388l114 122q152 156 246 160l260 -194l16 -112l36 -450l38 -220l-42 -92l-40 -386l-186 -760l-6 -558l100 -98l-74 -80l-178 -8l-58 82l38 142l-18 312l26 382l68 430l78 88l78 720 l-354 -40l-48 -718q-114 -320 -149 -429t-11 -197t-32 -296q-12 -146 -118 -150zM118 2586l180 210l310 238l236 -58l-100 -138l-326 -106l-210 -198zM446 1920l322 58l-18 90l-32 246l-128 30l-102 -92q-38 -252 -42 -332z" />
<glyph unicode="&#xe2;" horiz-adv-x="912" d="M16 -20q26 42 10 116v118q22 74 48 212t6 402q-8 472 10 683t64 407q8 198 118 388l114 122q152 156 246 160l260 -194l16 -112l36 -450l38 -220l-42 -92l-40 -386l-186 -760l-6 -558l100 -98l-74 -80l-178 -8l-58 82l38 142l-18 312l26 382l68 430l78 88l78 720 l-354 -40l-48 -718q-114 -320 -149 -429t-11 -197t-32 -296q-12 -146 -118 -150zM148 2626l74 124l238 260l118 6l220 -182l168 -276l-4 -42l-92 -10l-158 242l-160 174l-98 -98l-88 -232l-122 -104l-74 24zM438 1920l322 58l-18 90l-32 246l-128 30l-102 -92 q-38 -252 -42 -332z" />
<glyph unicode="&#xe3;" horiz-adv-x="1032" d="M18 -20q26 42 10 116v118q22 74 48 212t6 402q-8 472 10 683t64 407q8 198 118 388l114 122q152 156 246 160l260 -194l16 -112l36 -450l38 -220l-42 -92l-40 -386l-186 -760l-6 -558l100 -98l-74 -80l-178 -8l-58 82l38 142l-18 312l26 382l68 430l78 88l78 720 l-354 -40l-48 -718q-114 -320 -149 -429t-11 -197t-32 -296q-12 -146 -118 -150zM360 2816q2 46 7 119t61 81q40 -2 72 -11t101 -52t129 -81t103 -43t58 10t16 57t4 63t15 20t23 -14t18 -43t7 -48q0 -50 -8 -86q-16 -68 -82 -78q-66 0 -143 26t-156 83t-106 60t-42 -15 t-33 -68l-28 -6zM440 1920l322 58l-18 90l-32 246l-128 30l-102 -92q-38 -252 -42 -332z" />
<glyph unicode="&#xe4;" horiz-adv-x="1032" d="M18 -20q26 42 10 116v118q22 74 48 212t6 402q-8 472 10 683t64 407q8 198 118 388l114 122q152 156 246 160l260 -194l16 -112l36 -450l38 -220l-42 -92l-40 -386l-186 -760l-6 -558l100 -98l-74 -80l-178 -8l-58 82l38 142l-18 312l26 382l68 430l78 88l78 720 l-354 -40l-48 -718q-114 -320 -149 -429t-11 -197t-32 -296q-12 -146 -118 -150zM256 2656q32 118 13 156t123 206l112 -38q10 -26 10 -56q0 -96 -102 -246q-78 -34 -156 -22zM440 1920l322 58l-18 90l-32 246l-128 30l-102 -92q-38 -252 -42 -332zM662 2728q0 82 86 206 q64 30 130 20q-26 -100 -11 -132t-103 -172l-94 32q-8 22 -8 46z" />
<glyph unicode="&#xe5;" horiz-adv-x="1032" d="M18 -32q26 42 10 112v114q22 70 48 204t6 388q-8 456 10 660t64 394q8 190 118 372l114 118q152 152 246 156l260 -188l16 -108l36 -434l38 -214l-42 -86l-40 -374l-186 -734l-6 -538l100 -96l-74 -76l-178 -8l-58 78l38 138l-18 300l26 370l68 416l78 84l78 696 l-354 -40l-48 -692q-114 -308 -149 -414t-11 -191t-32 -287q-12 -140 -118 -144zM240 2828q0 36 6 76l32 60l94 74l146 10q116 -18 230 -70l44 -138l-32 -156q-62 -164 -294 -178l-118 48q-108 112 -108 274zM390 2886l14 -128l92 -110l114 46l44 106q-24 84 -105 110 t-159 -24zM440 1842l322 56l-18 86l-32 236l-128 30l-102 -88q-38 -244 -42 -320z" />
<glyph unicode="&#xe7;" horiz-adv-x="862" d="M-10 962l6 306l34 42q12 108 30 244q78 136 114 238t54 257t42 306t78 333l42 78l88 36q212 166 368 190l196 -54q52 -84 94 -138l-90 -66q-102 116 -192 109t-204 -161q-124 -376 -136 -544t-51 -278t-91 -348q-60 -310 -72 -495t30 -399q148 -78 208 44l42 82l66 6 l6 -190l-12 -84q-94 -66 -130 -192l-150 -6l-134 126l-6 100l-70 42q-58 72 -148 156zM136 -276l18 84l60 16l118 -78l76 22l20 88l-120 116l4 284l116 -8l104 14l-50 -304l112 -66l24 -86l-38 -150l-238 -66l-134 66z" />
<glyph unicode="&#xe8;" horiz-adv-x="980" d="M-14 282q42 334 66 580l36 40q12 108 24 264q64 178 100 280t54 257t42 306t72 437l42 78l88 36l238 12q222 -30 400 -48q102 -66 144 -118l-54 -62q-72 -34 -123 -19t-104 42t-110 38t-193 17l-24 -100q136 -12 223 -33t134 -48t53 -105l-80 -18l-138 42l-150 24h-72 q-66 -304 -90 -432t-63 -238t-91 -348q-60 -310 -72 -495t30 -399l-42 -60l6 -54l102 12q82 24 136 66l42 82l66 6l6 -190l-12 -84q-352 -4 -448 -36l-66 6l6 120l24 60q-58 72 -130 94zM382 2962l230 76l326 -214l198 -196l-86 -58l-226 180l-334 82z" />
<glyph unicode="&#xe9;" horiz-adv-x="980" d="M-14 308q42 334 66 580l36 40q12 108 24 264q64 178 100 280t54 257t42 306t72 437l42 78l88 36l238 12q222 -30 400 -48q102 -66 144 -118l-54 -62q-72 -34 -123 -19t-104 42t-110 38t-193 17l-24 -100q136 -12 223 -33t134 -48t53 -105l-80 -18l-138 42l-150 24h-72 q-66 -304 -90 -432t-63 -238t-91 -348q-60 -310 -72 -495t30 -399l-42 -60l6 -54l102 12q82 24 136 66l42 82l66 6l6 -190l-12 -84q-352 -4 -448 -36l-66 6l6 120l24 60q-58 72 -130 94zM74 2580l180 210l310 238l236 -58l-100 -138l-326 -106l-210 -198z" />
<glyph unicode="&#xea;" horiz-adv-x="980" d="M-14 308q42 334 66 580l36 40q12 108 24 264q90 254 108 409t42 306t72 437l42 78l88 36l238 12q222 -30 400 -48q102 -66 144 -118l-54 -62q-72 -34 -123 -19t-104 42t-110 38t-193 17l-24 -100q136 -12 223 -33t134 -48t53 -105l-80 -18l-138 42l-150 24h-72 q-66 -304 -90 -432t-40 -174t-68 -284q-60 -310 -72 -495t30 -399l-42 -60l6 -54l102 12q82 24 136 66l42 82l66 6l6 -190l-12 -84q-352 -4 -448 -36l-66 6l6 120l24 60q-58 72 -130 94zM72 2632l72 124l240 260l118 6l220 -182l168 -276l-4 -42l-92 -8l-160 240l-158 176 l-98 -98l-88 -232l-122 -104l-74 24z" />
<glyph unicode="&#xeb;" horiz-adv-x="980" d="M-14 282q42 334 66 580l36 40q12 108 24 264q64 178 100 280t54 257t42 306t72 437l42 78l88 36l238 12q222 -30 400 -48q102 -66 144 -118l-54 -62q-72 -34 -123 -19t-104 42t-110 38t-193 17l-24 -100q136 -12 223 -33t134 -48t53 -105l-80 -18l-138 42l-150 24h-72 q-66 -304 -90 -432t-63 -238t-91 -348q-60 -310 -72 -495t30 -399l-42 -60l6 -54l102 12q82 24 136 66l42 82l66 6l6 -190l-12 -84q-352 -4 -448 -36l-66 6l6 120l24 60q-58 72 -130 94zM246 2974q66 10 130 -20q86 -124 86 -204q0 -26 -8 -48l-94 -32q-118 142 -103 173 t-11 131zM610 2944q0 30 10 56l112 38q142 -168 123 -206t13 -156q-78 -12 -156 22q-102 150 -102 246z" />
<glyph unicode="&#xec;" horiz-adv-x="594" d="M-10 2970l236 58l310 -238l180 -210l-90 -52l-210 198l-326 106zM36 -62l28 242v242q82 222 64 430l14 450l20 466l10 430q-4 202 164 188l134 42q86 -6 106 -38l6 -22q-6 -46 -48 -82l-6 -50q0 -168 -29 -318t-58 -318t-105 -412q-40 -168 -59 -359t-38 -387t-19 -522 q-34 -72 -106 -114l-50 24z" />
<glyph unicode="&#xed;" horiz-adv-x="566" d="M20 -62l28 242v242q82 222 64 430l14 450l20 466l10 430q-4 202 164 188l134 42q86 -6 106 -38l6 -22q-6 -46 -48 -82l-6 -50q0 -168 -29 -318t-58 -318t-105 -412q-40 -168 -59 -359t-38 -387t-19 -522q-34 -72 -106 -114l-50 24zM108 2580l180 210l310 238l236 -58 l-100 -138l-326 -106l-210 -198z" />
<glyph unicode="&#xee;" horiz-adv-x="566" d="M20 -62l28 242v242q82 222 64 430l14 450l20 466l10 430q-4 202 164 188l134 42q86 -6 106 -38l6 -22q-6 -46 -48 -82l-6 -50q0 -168 -29 -318t-58 -318t-105 -412q-40 -168 -59 -359t-38 -387t-19 -522q-34 -72 -106 -114l-50 24zM30 2644l72 124l240 260l118 6 l220 -182l168 -276l-4 -42l-92 -8l-160 240l-158 176l-98 -98l-88 -232l-122 -104l-74 24z" />
<glyph unicode="&#xef;" horiz-adv-x="566" d="M20 -56l30 256v256q84 232 66 454l14 472l20 492l10 454q-4 212 170 196l140 46l110 -40l6 -24q-6 -48 -50 -86l-6 -52q0 -178 -30 -336t-60 -335t-110 -433q-40 -178 -60 -380t-40 -409t-20 -549q-34 -76 -110 -120l-50 24zM112 2676q32 118 13 156t123 206l112 -38 q10 -26 10 -56q0 -96 -102 -246q-78 -34 -156 -22zM518 2750q0 80 86 204q64 30 130 20q-26 -100 -10 -130v-10q0 -38 -104 -164l-94 32q-8 22 -8 48z" />
<glyph unicode="&#xf1;" horiz-adv-x="1026" d="M-32 198v108q24 130 41 273t28 345t40 433t50 423t69 372q8 178 22 294t64 202l92 12q90 -52 76 -152t16 -172l120 110q166 144 270 148l74 -40l20 -102l42 -256l6 -324l-28 -110l-62 -324l-198 -726l-178 -732l210 46l22 -104l-96 -78l-104 -36l-94 -16l-92 32l-30 72 l40 128l86 492l28 346l102 374l84 80l56 468l6 318l-16 248l-114 -58q-154 -108 -208 -384t-87 -416t-75 -432q-42 -370 -43 -428t-28 -170t-85 -304q-24 -44 -78 -36l-8 2q-22 6 -40 74zM326 2816q2 46 7 119t61 81q40 -2 72 -11t101 -52t129 -81t103 -43t58 10t16 57t4 63 t15 20t23 -14t18 -43t7 -48q0 -50 -8 -86q-16 -68 -82 -78q-66 0 -143 26t-156 83t-106 60t-42 -15t-33 -68l-28 -6z" />
<glyph unicode="&#xf2;" horiz-adv-x="998" d="M28 764l12 348l50 302q124 562 192 811t436 321l114 -72q-48 -366 74 -924q-28 -238 -46 -437t-102 -395q-54 -224 -96 -317t-172 -187l-188 -36q-148 68 -121 144t-38 125t-115 317zM166 2942l228 84l334 -204l202 -188l-84 -62l-230 174l-336 70zM264 556l142 -116 l112 160q130 198 178 742l-46 544l28 336l-70 34q-90 -32 -94 -136l-108 -462l-124 -466q-64 -348 -18 -636z" />
<glyph unicode="&#xf3;" horiz-adv-x="998" d="M28 764l12 348l50 302q124 562 192 811t436 321l114 -72q-48 -366 74 -924q-28 -238 -46 -437t-102 -395q-54 -224 -96 -317t-172 -187l-188 -36q-148 68 -121 144t-38 125t-115 317zM128 2586l180 210l310 238l236 -58l-100 -138l-326 -106l-210 -198zM264 556l142 -116 l112 160q130 198 178 742l-46 544l28 336l-70 34q-90 -32 -94 -136l-108 -462l-124 -466q-64 -348 -18 -636z" />
<glyph unicode="&#xf4;" horiz-adv-x="998" d="M28 764l12 348l50 302q124 562 192 811t436 321l114 -72q-48 -366 74 -924q-28 -238 -46 -437t-102 -395q-54 -224 -96 -317t-172 -187l-188 -36q-148 68 -121 144t-38 125t-115 317zM114 2632l72 124l240 260l118 6l220 -182l168 -276l-4 -42l-92 -8l-160 240l-158 176 l-98 -98l-88 -232l-122 -104l-74 24zM264 556l142 -116l112 160q130 198 178 742l-46 544l28 336l-70 34q-90 -32 -94 -136l-108 -462l-124 -466q-64 -348 -18 -636z" />
<glyph unicode="&#xf5;" horiz-adv-x="998" d="M28 834l12 350l50 300q124 562 192 811t436 321l114 -72q-48 -366 74 -924q-28 -238 -46 -437t-102 -395q-54 -224 -96 -317t-172 -187l-188 -36q-148 68 -121 144t-38 125t-115 317zM160 2822q2 46 7 119t61 81q40 -2 72 -11t101 -52t129 -81t103 -43t58 10t16 57t4 63 t15 20t23 -14t18 -43t7 -48q0 -50 -8 -86q-16 -68 -82 -78q-66 0 -143 26t-156 83t-106 60t-42 -15t-33 -68l-28 -6zM264 626l142 -116l112 160q130 198 178 742l-46 546l28 334l-70 34q-90 -32 -94 -136l-108 -462l-124 -466q-64 -346 -18 -636z" />
<glyph unicode="&#xf6;" horiz-adv-x="998" d="M28 802l12 348l50 302q124 562 192 811t436 321l114 -72q-48 -366 74 -924q-28 -238 -46 -437t-102 -395q-54 -224 -96 -317t-172 -187l-188 -36q-148 68 -121 144t-38 125t-115 317zM244 2874q0 30 10 56l112 38q126 -148 126 -196q0 -6 -2 -10q-20 -38 12 -156 q-78 -12 -156 22q-102 150 -102 246zM264 594l142 -116l112 160q130 198 178 742l-46 544l28 336l-70 34q-90 -32 -94 -136l-108 -462l-124 -466q-64 -348 -18 -636zM696 3018q16 2 32 2q50 0 98 -22q86 -124 86 -204q0 -26 -8 -48l-94 -32q-118 142 -103 173t-11 131z" />
<glyph unicode="&#xf8;" horiz-adv-x="974" d="M-54 118l30 134l100 336l20 66q14 -32 25 -47t23 -25t30 -32q-74 -276 -87 -333t-12 -97t-1 -88l-34 2l-36 -2l-28 32zM48 928l12 384l50 332q124 618 192 891t436 353l114 -80q-48 -402 74 -1016q-28 -262 -46 -480t-102 -434q-54 -246 -96 -349t-172 -205l-188 -40 q-148 74 -121 158t-38 138t-115 348zM286 1130q96 272 198 504t218 524l14 -230q-74 -222 -109 -291t-91 -218t-107 -284t-99 -249l-12 46l-10 100zM302 886l142 -128l112 176q130 218 178 816l-46 600l28 368l-70 38q-90 -36 -94 -150l-108 -508l-124 -512 q-64 -382 -18 -700zM848 2388q114 202 155 260t83 90t108 56q48 -10 90 -56l-20 -82l-38 -90l-54 -78q-118 -112 -177 -160t-125 -174q-16 150 -22 234z" />
<glyph unicode="&#xf9;" horiz-adv-x="1060" d="M2 548l14 306l26 94l24 280l188 620l168 632l-198 -40l-22 88l92 68l98 30l88 14l88 -26l28 -62l-38 -112l-80 -422l-28 -298l-96 -320l-58 -188l-62 -252l8 -240l108 -182q114 102 175 312t93 330t72 372q38 318 39 367t27 145t80 260q24 40 74 32l8 -2q20 -8 38 -64 v-92q-22 -112 -38 -234t-28 -296t-28 -369t-36 -359t-66 -320q-6 -152 -30 -255t-24 -373l-86 -8q-106 224 -106 317t-30 155l-108 -130q-84 -60 -156 -92l-78 16l-108 70zM278 2962l230 76l326 -214l198 -196l-86 -58l-226 180l-334 82z" />
<glyph unicode="&#xfa;" horiz-adv-x="1060" d="M2 548l14 306l26 94l24 280l188 620l168 632l-198 -40l-22 88l92 68l98 30l88 14l88 -26l28 -62l-38 -112l-80 -422l-28 -298l-96 -320l-58 -188l-62 -252l8 -240l108 -182q114 102 175 312t93 330t72 372q38 318 39 367t27 145t80 260q24 40 74 32l8 -2q20 -8 38 -64 v-92q-22 -112 -38 -234t-28 -296t-28 -369t-36 -359t-66 -320q-6 -152 -30 -255t-24 -373l-86 -8q-106 224 -106 317t-30 155l-108 -130q-84 -60 -156 -92l-78 16l-108 70zM642 2634l198 196l326 214l230 -76l-108 -130l-334 -82l-226 -180z" />
<glyph unicode="&#xfb;" horiz-adv-x="1060" d="M2 548l14 306l26 94l24 280l188 620l168 632l-198 -40l-22 88l92 68l98 30l88 14l88 -26l28 -62l-38 -112l-80 -422l-28 -298l-96 -320l-58 -188l-62 -252l8 -240l108 -182q114 102 175 312t93 330t72 372q38 318 39 367t27 145t80 260q24 40 74 32l8 -2q20 -8 38 -64 v-92q-22 -112 -38 -234t-28 -296t-28 -369t-36 -359t-66 -320q-6 -152 -30 -255t-24 -373l-86 -8q-106 224 -106 317t-30 155l-108 -130q-84 -60 -156 -92l-78 16l-108 70zM616 2614l146 258l192 170l104 -6l210 -242l64 -116l-20 -106l-64 -22l-108 98l-90 148l-66 106 l-138 -164l-146 -170l-82 6z" />
<glyph unicode="&#xfc;" horiz-adv-x="1062" d="M46 450l14 324l28 98l24 296l194 656l174 666l-206 -42l-20 94l94 72l102 32l90 14l90 -28l30 -66l-38 -118l-84 -446l-28 -314l-100 -338l-60 -198l-78 -300l16 -266l84 -180q152 142 215 363t96 348t73 393q42 336 43 388t27 153t82 275q24 42 78 34l6 -2q22 -8 40 -68 v-98q-24 -118 -40 -247t-28 -312t-29 -389t-37 -380t-68 -338q-8 -160 -32 -269t-24 -393l-88 -10q-110 236 -111 335t-31 163l-110 -136q-88 -64 -164 -98l-80 16l-110 76zM630 2746q30 94 22 128t92 156l64 -46q2 -14 2 -28l-2 -18q-8 -80 -82 -192q-50 -18 -96 0z M875 2669q-25 27 35 215l92 2q16 -18 24 -44q12 -36 12 -84q0 -66 -20 -158q-48 -52 -108 -68q-10 110 -35 137z" />
<glyph unicode="&#xff;" horiz-adv-x="790" d="M10 2572l182 -20q72 -160 105 -323t169 -251q94 134 222 404l206 50l-48 -198q-62 -104 -134 -257t-134 -531l-76 -692l-28 -206l-144 -322q-30 -110 -26 -272l-60 -44l-90 12l-54 78l2 184l60 224l38 158l138 496l84 404l-90 216l-144 210q-88 182 -122 490zM250 2848 q66 10 130 -20q86 -124 86 -204q0 -26 -8 -48l-94 -32q-118 142 -103 173t-11 131zM544 2842q0 30 10 56l112 38q142 -168 123 -206t13 -156q-78 -12 -156 22q-102 150 -102 246z" />
<glyph unicode="&#x178;" horiz-adv-x="906" d="M26 2228l2 216l92 146l102 14l4 -112l238 -308l84 -188l42 108l220 588l220 358l118 -22l-114 -204l-160 -454l-132 -412l-64 -276l-48 -258l-46 -506q-110 -398 -130 -1014l158 -190l24 -162l-202 198l-230 6l-44 128q128 286 142 1016q34 202 74 304q16 458 -118 664 l-96 306zM296 2610l30 430l144 -42l-46 -346zM520 2492l60 454l152 94l-68 -368z" />
<glyph unicode="&#x2c6;" horiz-adv-x="928" d="M124 2584l168 276l220 182l118 -6l240 -260l72 -124l-22 -112l-74 -24l-122 104l-88 232l-98 98l-158 -176l-160 -240l-92 8z" />
<glyph unicode="&#x2dc;" horiz-adv-x="748" d="M104 2822q2 46 7 119t61 81q40 -2 72 -11t101 -52t129 -81t103 -43t58 10t16 57t4 63t15 20t23 -14t18 -43t7 -48q0 -50 -8 -86q-16 -68 -82 -78q-66 0 -143 26t-156 83t-106 60t-42 -15t-33 -68l-28 -6z" />
<glyph unicode="&#x2000;" horiz-adv-x="1646" />
<glyph unicode="&#x2001;" horiz-adv-x="3292" />
<glyph unicode="&#x2002;" horiz-adv-x="1646" />
<glyph unicode="&#x2003;" horiz-adv-x="3292" />
<glyph unicode="&#x2004;" horiz-adv-x="1097" />
<glyph unicode="&#x2005;" horiz-adv-x="823" />
<glyph unicode="&#x2006;" horiz-adv-x="548" />
<glyph unicode="&#x2007;" horiz-adv-x="548" />
<glyph unicode="&#x2008;" horiz-adv-x="411" />
<glyph unicode="&#x2009;" horiz-adv-x="658" />
<glyph unicode="&#x200a;" horiz-adv-x="182" />
<glyph unicode="&#x2010;" horiz-adv-x="1352" d="M162 1172l96 168l256 86h446l126 122l88 -54l8 -184l-214 -102l-462 2z" />
<glyph unicode="&#x2011;" horiz-adv-x="1352" d="M162 1172l96 168l256 86h446l126 122l88 -54l8 -184l-214 -102l-462 2z" />
<glyph unicode="&#x2012;" horiz-adv-x="1352" d="M162 1172l96 168l256 86h446l126 122l88 -54l8 -184l-214 -102l-462 2z" />
<glyph unicode="&#x2013;" horiz-adv-x="1392" d="M162 1188l102 158l272 82h476l134 114l94 -50l8 -174l-228 -96l-492 2z" />
<glyph unicode="&#x2014;" horiz-adv-x="1902" d="M162 1172l146 158l392 80h682l194 114l134 -50l12 -172l-328 -96l-706 2z" />
<glyph unicode="&#x2018;" horiz-adv-x="578" d="M180 2220l16 186l-6 150l-4 178l90 -98l60 -304l34 -248l-32 -168l-110 20l-46 142z" />
<glyph unicode="&#x2019;" horiz-adv-x="558" d="M176 2588l12 154l98 62l78 -90l2 -134l-10 -142l-30 -184l16 -204l-96 -152l-14 132l-40 308z" />
<glyph unicode="&#x201a;" horiz-adv-x="524" d="M152 -294l20 140l44 180l16 150l22 176l76 -110l12 -308l-4 -252l-56 -160l-106 38z" />
<glyph unicode="&#x201c;" horiz-adv-x="706" d="M108 2220l16 186l-6 150l-4 178l90 -98l60 -304l34 -248l-32 -168l-110 20l-46 142zM384 2634l84 160l24 -132l62 -304l34 -248v-154l-94 -70l-84 86l-12 132v142l16 186z" />
<glyph unicode="&#x201d;" horiz-adv-x="706" d="M108 2588l12 154l98 62l78 -90l2 -134l-10 -142l-30 -184l16 -204l-96 -152l-14 132l-40 308zM400 2594l44 164l108 -28l36 -144l-8 -142l-30 -184l-4 -150l-8 -178l-84 104l-38 308z" />
<glyph unicode="&#x201e;" horiz-adv-x="816" d="M150 -296l18 142l46 180l16 148l22 178l76 -110l12 -310l-4 -250l-56 -160l-106 36zM430 -446l8 134l22 140l46 180v204l108 144l2 -132l16 -310l-4 -250l-24 -152l-104 -54z" />
<glyph unicode="&#x2026;" horiz-adv-x="1652" d="M150 310q52 66 90 100q20 20 46 20q14 0 30 -6q44 -22 74 -68t34 -78v-8q0 -28 -22 -44q-28 -16 -40 -60t-28 -44q-4 -4 -6 -4q-18 0 -46 8q-36 8 -73 59t-59 125zM670 244v8q0 24 22 36q28 14 39 52t27 38q4 4 6 4q18 0 46 -8q34 -6 70 -50t58 -108q-52 -56 -88 -86 q-20 -16 -44 -16q-14 0 -32 4q-40 20 -70 59t-34 67zM1292 238q0 22 20 34q46 84 68 88q16 0 42 -6q32 -6 100 -90q-28 -112 -62 -140q-18 -16 -42 -16q-12 0 -28 4q-40 18 -46 47t-52 79z" />
<glyph unicode="&#x202f;" horiz-adv-x="658" />
<glyph unicode="&#x2039;" horiz-adv-x="1028" d="M134 1252l6 126l250 328l382 250l56 -10l12 -136l-332 -236l-242 -234l114 -190l300 -146l136 -142l8 -102l-154 -34l-170 114z" />
<glyph unicode="&#x203a;" horiz-adv-x="1010" d="M94 872l332 236l242 234l-114 190l-258 198l-180 90l-8 102l154 34l172 -114l474 -460l-374 -362l-372 -294l-56 10z" />
<glyph unicode="&#x205f;" horiz-adv-x="823" />
<glyph unicode="&#x25fc;" horiz-adv-x="2900" d="M0 0v2900h2900v-2900h-2900z" />
</font>
</defs>
</svg>
